<svg width="100" height="100" viewBox="0 0 100 100" fill="none" xmlns="http://www.w3.org/2000/svg">
<rect width="100" height="100" rx="50" fill="#0F0A19" fill-opacity="0.08"/>
<path d="M50 47.5556C52.6522 47.5556 55.1957 46.5254 57.0711 44.6917C58.9464 42.858 60 40.371 60 37.7778C60 35.1845 58.9464 32.6975 57.0711 30.8638C55.1957 29.0302 52.6522 28 50 28C47.3478 28 44.8043 29.0302 42.9289 30.8638C41.0536 32.6975 40 35.1845 40 37.7778C40 40.371 41.0536 42.858 42.9289 44.6917C44.8043 46.5254 47.3478 47.5556 50 47.5556ZM50 52.4444C46.1184 52.4416 42.2895 53.3239 38.8177 55.0212C35.3458 56.7186 32.3267 59.1842 30 62.2222C32.3267 65.2602 35.3458 67.7259 38.8177 69.4232C42.2895 71.1206 46.1184 72.0028 50 72C53.8816 72.0028 57.7105 71.1206 61.1823 69.4232C64.6542 67.7259 67.6733 65.2602 70 62.2222C67.6733 59.1842 64.6542 56.7186 61.1823 55.0212C57.7105 53.3239 53.8816 52.4416 50 52.4444Z" fill="#0F0A19" fill-opacity="0.24"/>
<rect x="70" y="70" width="30" height="30" rx="15" fill="#3D2278"/>
<path d="M91.3027 80.1327H88.9685L88.5356 79.0943C88.2582 78.4285 87.6189 78 86.9067 78H83.7756C83.0634 78 82.423 78.4285 82.1466 79.0943L81.7138 80.1327H79.3215C78.0427 80.1327 77 81.1861 77 82.4846V89.6481C77 90.9436 78.0397 92 79.3215 92H91.3025C92.5813 92 93.624 90.9466 93.624 89.6481L93.625 82.4826C93.625 81.1861 92.5825 80.1327 91.3027 80.1327ZM92.6179 89.6461C92.6179 90.3805 92.0287 90.9775 91.3037 90.9775L79.3216 90.9785C78.5967 90.9785 78.0074 90.3816 78.0074 89.6471L78.0064 82.4826C78.0064 81.7481 78.5957 81.1512 79.3206 81.1512H82.0453C82.247 81.1512 82.4309 81.0286 82.5086 80.8402L83.0723 79.4909C83.1903 79.2048 83.4677 79.0185 83.7746 79.0185H86.9047C87.2117 79.0185 87.4861 79.2048 87.6071 79.4909L88.1707 80.8402C88.2484 81.0286 88.4324 81.1512 88.634 81.1512H91.3038C92.0288 81.1512 92.618 81.7481 92.618 82.4826L92.62 89.646L92.6179 89.6461Z" fill="white"/>
<path d="M85.3674 82.2607C83.3528 82.2607 81.7109 83.922 81.7109 85.9652C81.7109 88.0062 83.3507 89.6696 85.3674 89.6696C87.3819 89.6696 89.0238 88.0083 89.0238 85.9652C89.0248 83.9222 87.385 82.2607 85.3674 82.2607ZM85.3674 88.6468C83.9066 88.6468 82.7182 87.4429 82.7182 85.9629C82.7182 84.4828 83.9065 83.2789 85.3674 83.2789C86.8282 83.2789 88.0165 84.4828 88.0165 85.9629C88.0175 87.4418 86.8282 88.6468 85.3674 88.6468Z" fill="white"/>
<path d="M79.8161 81.9746C79.2446 81.9746 78.7812 82.444 78.7812 83.023C78.7812 83.602 79.2445 84.0714 79.8161 84.0714C80.3876 84.0714 80.8509 83.6021 80.8509 83.023C80.8509 82.447 80.3846 81.9746 79.8161 81.9746ZM79.7885 83.024C79.7885 83.0091 79.8013 82.9961 79.8161 82.9961C79.8308 82.9961 79.8436 83.0091 79.8436 83.024C79.8436 83.0569 79.7885 83.0569 79.7885 83.024Z" fill="white"/>
</svg>
