<svg width="21" height="26" viewBox="0 0 21 26" fill="none" xmlns="http://www.w3.org/2000/svg">
<path d="M16.2081 0.62457C15.7992 0.22158 15.2558 0 14.6783 0H6.75937C5.56566 0 4.59375 0.958884 4.59375 2.13805V5.83105H2.16563C0.971906 5.83105 0 6.78993 0 7.9691V23.8619C0 25.0405 0.97125 26 2.16563 26H14.2406C15.4343 26 16.4062 25.0411 16.4062 23.8619V20.1709H18.8344C20.0281 20.1709 21 19.212 21 18.0328V6.23339C21 5.66195 20.7742 5.12484 20.3641 4.71991L16.2081 0.62457ZM15.9692 2.22033L18.7576 4.96741H16.319C16.1293 4.96741 15.9692 4.80932 15.9692 4.62208V2.22033ZM15.0944 23.8626C15.0944 24.3271 14.7118 24.7049 14.2413 24.7049H2.16563C1.69509 24.7049 1.3125 24.3271 1.3125 23.8626V7.96975C1.3125 7.50521 1.69509 7.12749 2.16563 7.12749H4.59375V18.0335C4.59375 19.212 5.565 20.1715 6.75937 20.1715H15.0938L15.0944 23.8626ZM18.835 18.8758H15.7618C15.7579 18.8758 15.7546 18.8738 15.7507 18.8738C15.7467 18.8738 15.7434 18.8758 15.7395 18.8758H6.76003C6.2895 18.8758 5.90691 18.498 5.90691 18.0335V2.13805C5.90691 1.67351 6.2895 1.29579 6.76003 1.29579H14.6573V4.62143C14.6573 5.52654 15.4028 6.26255 16.3196 6.26255H19.6882V18.0328C19.6882 18.4974 19.3056 18.8758 18.835 18.8758Z" fill="#3D2278"/>
</svg>
