<svg width="100" height="100" viewBox="0 0 100 100" fill="none" xmlns="http://www.w3.org/2000/svg">
<g filter="url(#filter0_d_1181_607)">
<rect x="30" y="26" width="40" height="40" rx="10" fill="#3D2278"/>
</g>
<path d="M57.9489 45.3796C57.7211 45.3796 57.5027 45.2918 57.3416 45.1355C57.1806 44.9793 57.0901 44.7673 57.0901 44.5463V42.193C57.0901 38.8598 53.9158 36.1933 50.0133 36.1933C46.1107 36.1933 42.9364 38.8932 42.9364 42.193V44.5463C42.9364 44.7673 42.8459 44.9793 42.6849 45.1355C42.5238 45.2918 42.3054 45.3796 42.0776 45.3796C41.8498 45.3796 41.6314 45.2918 41.4703 45.1355C41.3092 44.9793 41.2188 44.7673 41.2188 44.5463V42.193C41.2188 37.9532 45.1694 34.5 50.0133 34.5C54.8571 34.5 58.8078 37.9532 58.8078 42.193V44.5463C58.8087 44.656 58.7871 44.7647 58.7442 44.8662C58.7014 44.9677 58.6382 45.06 58.5583 45.1375C58.4783 45.2151 58.3833 45.2764 58.2787 45.318C58.1741 45.3595 58.062 45.3805 57.9489 45.3796Z" fill="white"/>
<path d="M55.6271 53.2201C55.3993 53.2201 55.1809 53.1323 55.0198 52.976C54.8588 52.8198 54.7683 52.6078 54.7683 52.3868V44.4738C54.7754 44.2574 54.869 44.0522 55.0293 43.9017C55.1896 43.7511 55.404 43.667 55.6271 43.6671C58.5884 43.6671 61 45.8204 61 48.4603C61 51.1002 58.5884 53.2201 55.6271 53.2201ZM56.4859 45.3937V51.4668C57.2379 51.346 57.9246 50.9793 58.432 50.4275C58.9395 49.8758 59.2371 49.1722 59.2755 48.4336C59.2386 47.6939 58.9417 46.9887 58.4341 46.4356C57.9265 45.8825 57.239 45.5148 56.4859 45.3937ZM44.3729 53.2201C41.4116 53.2201 39 51.0735 39 48.4336C39 45.7937 41.4116 43.6671 44.3729 43.6671C44.6007 43.6671 44.8191 43.7549 44.9802 43.9112C45.1412 44.0675 45.2317 44.2794 45.2317 44.5004V52.3868C45.2317 52.6078 45.1412 52.8198 44.9802 52.976C44.8191 53.1323 44.6007 53.2201 44.3729 53.2201ZM43.5141 45.3937C42.761 45.5148 42.0735 45.8825 41.5659 46.4356C41.0583 46.9887 40.7614 47.6939 40.7245 48.4336C40.7629 49.1722 41.0606 49.8758 41.568 50.4275C42.0754 50.9793 42.7621 51.346 43.5141 51.4668V45.3937Z" fill="white"/>
<path d="M55.3449 55.9328H52.5004C52.2727 55.9328 52.0542 55.845 51.8932 55.6887C51.7321 55.5325 51.6416 55.3205 51.6416 55.0995C51.6416 54.8785 51.7321 54.6665 51.8932 54.5103C52.0542 54.354 52.2727 54.2662 52.5004 54.2662H55.3449C55.7895 54.2662 56.2159 54.0948 56.5303 53.7898C56.8447 53.4847 57.0214 53.071 57.0214 52.6396V52.2729C57.0214 52.0519 57.1118 51.84 57.2729 51.6837C57.434 51.5274 57.6524 51.4396 57.8802 51.4396C58.108 51.4396 58.3264 51.5274 58.4875 51.6837C58.6486 51.84 58.739 52.0519 58.739 52.2729V52.6396C58.739 53.513 58.3814 54.3506 57.7449 54.9682C57.1084 55.5858 56.2451 55.9328 55.3449 55.9328Z" fill="white"/>
<path d="M51.0302 57.5001H49.3332C48.71 57.5001 48.1123 57.2599 47.6716 56.8324C47.231 56.4048 46.9834 55.8249 46.9834 55.2202V55.1269C46.9852 54.5234 47.2336 53.9452 47.6741 53.5191C48.1145 53.0929 48.7112 52.8537 49.3332 52.8537H51.0302C51.6516 52.8537 52.2476 53.0932 52.6869 53.5195C53.1263 53.9458 53.3732 54.524 53.3732 55.1269V55.2202C53.3732 55.8237 53.1265 56.4026 52.6874 56.83C52.2482 57.2574 51.6523 57.4984 51.0302 57.5001ZM49.3469 54.5203C49.1805 54.5202 49.0207 54.5839 48.9024 54.6975C48.784 54.8111 48.7166 54.9654 48.7148 55.1269V55.2202C48.7148 55.3829 48.7814 55.5389 48.9 55.6539C49.0185 55.7689 49.1793 55.8335 49.3469 55.8335H51.0302C51.1967 55.8318 51.3557 55.7664 51.4728 55.6516C51.5898 55.5367 51.6555 55.3817 51.6555 55.2202V55.1269C51.6555 54.966 51.5896 54.8117 51.4724 54.6979C51.3551 54.5842 51.1961 54.5203 51.0302 54.5203H49.3469Z" fill="white"/>
<defs>
<filter id="filter0_d_1181_607" x="0" y="0" width="100" height="100" filterUnits="userSpaceOnUse" color-interpolation-filters="sRGB">
<feFlood flood-opacity="0" result="BackgroundImageFix"/>
<feColorMatrix in="SourceAlpha" type="matrix" values="0 0 0 0 0 0 0 0 0 0 0 0 0 0 0 0 0 0 127 0" result="hardAlpha"/>
<feOffset dy="4"/>
<feGaussianBlur stdDeviation="15"/>
<feComposite in2="hardAlpha" operator="out"/>
<feColorMatrix type="matrix" values="0 0 0 0 0.215686 0 0 0 0 0.329412 0 0 0 0 0.941176 0 0 0 0.15 0"/>
<feBlend mode="normal" in2="BackgroundImageFix" result="effect1_dropShadow_1181_607"/>
<feBlend mode="normal" in="SourceGraphic" in2="effect1_dropShadow_1181_607" result="shape"/>
</filter>
</defs>
</svg>
