<svg width="184" height="36" viewBox="0 0 184 36" fill="none" xmlns="http://www.w3.org/2000/svg">
<path d="M64.032 12.832L60.912 24H58.272L56.176 16.048L53.984 24L51.36 24.016L48.352 12.832H50.752L52.72 21.504L54.992 12.832H57.488L59.632 21.456L61.616 12.832H64.032ZM69.4306 24.144C68.5773 24.144 67.8093 23.9573 67.1266 23.584C66.444 23.2 65.9053 22.6613 65.5106 21.968C65.1266 21.2747 64.9346 20.4747 64.9346 19.568C64.9346 18.6613 65.132 17.8613 65.5266 17.168C65.932 16.4747 66.4813 15.9413 67.1746 15.568C67.868 15.184 68.6413 14.992 69.4946 14.992C70.348 14.992 71.1213 15.184 71.8146 15.568C72.508 15.9413 73.052 16.4747 73.4466 17.168C73.852 17.8613 74.0546 18.6613 74.0546 19.568C74.0546 20.4747 73.8466 21.2747 73.4306 21.968C73.0253 22.6613 72.4706 23.2 71.7666 23.584C71.0733 23.9573 70.2946 24.144 69.4306 24.144ZM69.4306 22.192C69.836 22.192 70.2146 22.096 70.5666 21.904C70.9293 21.7013 71.2173 21.4027 71.4306 21.008C71.644 20.6133 71.7506 20.1333 71.7506 19.568C71.7506 18.7253 71.5266 18.08 71.0786 17.632C70.6413 17.1733 70.1026 16.944 69.4626 16.944C68.8226 16.944 68.284 17.1733 67.8466 17.632C67.42 18.08 67.2066 18.7253 67.2066 19.568C67.2066 20.4107 67.4146 21.0613 67.8306 21.52C68.2573 21.968 68.7906 22.192 69.4306 22.192ZM77.9378 16.512C78.2258 16.0427 78.5991 15.6747 79.0578 15.408C79.5271 15.1413 80.0604 15.008 80.6578 15.008V17.36H80.0658C79.3618 17.36 78.8284 17.5253 78.4658 17.856C78.1138 18.1867 77.9378 18.7627 77.9378 19.584V24H75.6978V15.136H77.9378V16.512ZM87.4145 24L84.4065 20.224V24H82.1665V12.16H84.4065V18.896L87.3825 15.136H90.2945L86.3905 19.584L90.3265 24H87.4145ZM95.4463 24.144C94.5929 24.144 93.8249 23.9573 93.1423 23.584C92.4596 23.2 91.9209 22.6613 91.5263 21.968C91.1423 21.2747 90.9503 20.4747 90.9503 19.568C90.9503 18.6613 91.1476 17.8613 91.5423 17.168C91.9476 16.4747 92.4969 15.9413 93.1903 15.568C93.8836 15.184 94.6569 14.992 95.5103 14.992C96.3636 14.992 97.1369 15.184 97.8303 15.568C98.5236 15.9413 99.0676 16.4747 99.4623 17.168C99.8676 17.8613 100.07 18.6613 100.07 19.568C100.07 20.4747 99.8623 21.2747 99.4462 21.968C99.0409 22.6613 98.4863 23.2 97.7823 23.584C97.0889 23.9573 96.3103 24.144 95.4463 24.144ZM95.4463 22.192C95.8516 22.192 96.2303 22.096 96.5823 21.904C96.9449 21.7013 97.2329 21.4027 97.4463 21.008C97.6596 20.6133 97.7663 20.1333 97.7663 19.568C97.7663 18.7253 97.5423 18.08 97.0943 17.632C96.6569 17.1733 96.1183 16.944 95.4783 16.944C94.8383 16.944 94.2996 17.1733 93.8623 17.632C93.4356 18.08 93.2223 18.7253 93.2223 19.568C93.2223 20.4107 93.4303 21.0613 93.8463 21.52C94.2729 21.968 94.8063 22.192 95.4463 22.192ZM110.081 15.136V24H107.825V22.88C107.537 23.264 107.159 23.568 106.689 23.792C106.231 24.0053 105.729 24.112 105.185 24.112C104.492 24.112 103.879 23.968 103.345 23.68C102.812 23.3813 102.391 22.9493 102.081 22.384C101.783 21.808 101.633 21.1253 101.633 20.336V15.136H103.873V20.016C103.873 20.72 104.049 21.264 104.401 21.648C104.753 22.0213 105.233 22.208 105.841 22.208C106.46 22.208 106.945 22.0213 107.297 21.648C107.649 21.264 107.825 20.72 107.825 20.016V15.136H110.081ZM114.9 16.976V21.264C114.9 21.5627 114.969 21.7813 115.108 21.92C115.257 22.048 115.502 22.112 115.844 22.112H116.884V24H115.476C113.588 24 112.644 23.0827 112.644 21.248V16.976H111.588V15.136H112.644V12.944H114.9V15.136H116.884V16.976H114.9ZM121.763 18.4C121.763 17.3013 122.008 16.32 122.499 15.456C123 14.5813 123.678 13.904 124.531 13.424C125.395 12.9333 126.36 12.688 127.427 12.688C128.675 12.688 129.768 13.008 130.707 13.648C131.646 14.288 132.302 15.1733 132.675 16.304H130.099C129.843 15.7707 129.48 15.3707 129.011 15.104C128.552 14.8373 128.019 14.704 127.411 14.704C126.76 14.704 126.179 14.8587 125.667 15.168C125.166 15.4667 124.771 15.8933 124.483 16.448C124.206 17.0027 124.067 17.6533 124.067 18.4C124.067 19.136 124.206 19.7867 124.483 20.352C124.771 20.9067 125.166 21.3387 125.667 21.648C126.179 21.9467 126.76 22.096 127.411 22.096C128.019 22.096 128.552 21.9627 129.011 21.696C129.48 21.4187 129.843 21.0133 130.099 20.48H132.675C132.302 21.6213 131.646 22.512 130.707 23.152C129.779 23.7813 128.686 24.096 127.427 24.096C126.36 24.096 125.395 23.856 124.531 23.376C123.678 22.8853 123 22.208 122.499 21.344C122.008 20.48 121.763 19.4987 121.763 18.4ZM136.828 16.512C137.116 16.0427 137.49 15.6747 137.948 15.408C138.418 15.1413 138.951 15.008 139.548 15.008V17.36H138.956C138.252 17.36 137.719 17.5253 137.356 17.856C137.004 18.1867 136.828 18.7627 136.828 19.584V24H134.588V15.136H136.828V16.512ZM149.297 19.376C149.297 19.696 149.276 19.984 149.233 20.24H142.753C142.806 20.88 143.03 21.3813 143.425 21.744C143.82 22.1067 144.305 22.288 144.881 22.288C145.713 22.288 146.305 21.9307 146.657 21.216H149.073C148.817 22.0693 148.326 22.7733 147.601 23.328C146.876 23.872 145.985 24.144 144.929 24.144C144.076 24.144 143.308 23.9573 142.625 23.584C141.953 23.2 141.425 22.6613 141.041 21.968C140.668 21.2747 140.481 20.4747 140.481 19.568C140.481 18.6507 140.668 17.8453 141.041 17.152C141.414 16.4587 141.937 15.9253 142.609 15.552C143.281 15.1787 144.054 14.992 144.929 14.992C145.772 14.992 146.524 15.1733 147.185 15.536C147.857 15.8987 148.374 16.416 148.737 17.088C149.11 17.7493 149.297 18.512 149.297 19.376ZM146.977 18.736C146.966 18.16 146.758 17.7013 146.353 17.36C145.948 17.008 145.452 16.832 144.865 16.832C144.31 16.832 143.841 17.0027 143.457 17.344C143.084 17.6747 142.854 18.1387 142.769 18.736H146.977ZM150.356 19.536C150.356 18.64 150.532 17.8453 150.884 17.152C151.247 16.4587 151.732 15.9253 152.34 15.552C152.959 15.1787 153.647 14.992 154.404 14.992C155.065 14.992 155.641 15.1253 156.132 15.392C156.633 15.6587 157.033 15.9947 157.332 16.4V15.136H159.588V24H157.332V22.704C157.044 23.12 156.644 23.4667 156.132 23.744C155.631 24.0107 155.049 24.144 154.388 24.144C153.641 24.144 152.959 23.952 152.34 23.568C151.732 23.184 151.247 22.6453 150.884 21.952C150.532 21.248 150.356 20.4427 150.356 19.536ZM157.332 19.568C157.332 19.024 157.225 18.56 157.012 18.176C156.799 17.7813 156.511 17.4827 156.148 17.28C155.785 17.0667 155.396 16.96 154.98 16.96C154.564 16.96 154.18 17.0613 153.828 17.264C153.476 17.4667 153.188 17.7653 152.964 18.16C152.751 18.544 152.644 19.0027 152.644 19.536C152.644 20.0693 152.751 20.5387 152.964 20.944C153.188 21.3387 153.476 21.6427 153.828 21.856C154.191 22.0693 154.575 22.176 154.98 22.176C155.396 22.176 155.785 22.0747 156.148 21.872C156.511 21.6587 156.799 21.36 157.012 20.976C157.225 20.5813 157.332 20.112 157.332 19.568ZM164.384 16.976V21.264C164.384 21.5627 164.453 21.7813 164.592 21.92C164.741 22.048 164.987 22.112 165.328 22.112H166.368V24H164.96C163.072 24 162.128 23.0827 162.128 21.248V16.976H161.072V15.136H162.128V12.944H164.384V15.136H166.368V16.976H164.384ZM171.915 24.144C171.062 24.144 170.294 23.9573 169.611 23.584C168.928 23.2 168.39 22.6613 167.995 21.968C167.611 21.2747 167.419 20.4747 167.419 19.568C167.419 18.6613 167.616 17.8613 168.011 17.168C168.416 16.4747 168.966 15.9413 169.659 15.568C170.352 15.184 171.126 14.992 171.979 14.992C172.832 14.992 173.606 15.184 174.299 15.568C174.992 15.9413 175.536 16.4747 175.931 17.168C176.336 17.8613 176.539 18.6613 176.539 19.568C176.539 20.4747 176.331 21.2747 175.915 21.968C175.51 22.6613 174.955 23.2 174.251 23.584C173.558 23.9573 172.779 24.144 171.915 24.144ZM171.915 22.192C172.32 22.192 172.699 22.096 173.051 21.904C173.414 21.7013 173.702 21.4027 173.915 21.008C174.128 20.6133 174.235 20.1333 174.235 19.568C174.235 18.7253 174.011 18.08 173.563 17.632C173.126 17.1733 172.587 16.944 171.947 16.944C171.307 16.944 170.768 17.1733 170.331 17.632C169.904 18.08 169.691 18.7253 169.691 19.568C169.691 20.4107 169.899 21.0613 170.315 21.52C170.742 21.968 171.275 22.192 171.915 22.192ZM180.422 16.512C180.71 16.0427 181.083 15.6747 181.542 15.408C182.011 15.1413 182.545 15.008 183.142 15.008V17.36H182.55C181.846 17.36 181.313 17.5253 180.95 17.856C180.598 18.1867 180.422 18.7627 180.422 19.584V24H178.182V15.136H180.422V16.512Z" fill="white"/>
<rect width="36" height="36" rx="6" fill="white"/>
<path d="M13.0752 17.5169L13.881 12.6592L19.2249 12.0543C19.9763 12.3731 20.3521 12.5326 20.3521 12.5326C21.904 16.0384 22.6799 17.7913 22.6799 17.7913L27.0005 15.6087" stroke="#3D2278" stroke-width="2.26966" stroke-linecap="round" stroke-linejoin="round"/>
<path d="M10 30L14.3702 25.4294L16.3776 19.2197L18.3544 19.615L23.2417 23.6217L17.5641 27.2604" stroke="#3D2278" stroke-width="2.57916" stroke-linecap="round" stroke-linejoin="round"/>
<path d="M19.4663 12.4651L17.2861 19.7395" stroke="#3D2278" stroke-width="4.64249"/>
<path d="M20.8604 10.5C22.103 10.5 23.1104 9.49264 23.1104 8.25C23.1104 7.00736 22.103 6 20.8604 6C19.6177 6 18.6104 7.00736 18.6104 8.25C18.6104 9.49264 19.6177 10.5 20.8604 10.5Z" fill="#3D2278"/>
</svg>
