<svg width="222" height="40" viewBox="0 0 222 40" fill="none" xmlns="http://www.w3.org/2000/svg">
<path d="M71.784 14.72L69.016 26H65.16L63.608 19.088L62.024 26H58.168L55.432 14.72H58.824L60.136 22.432L61.912 14.72H65.352L67.08 22.368L68.392 14.72H71.784ZM78.8428 26.112C77.7867 26.112 76.8161 25.8667 75.9307 25.376C75.0454 24.8747 74.3414 24.1867 73.8187 23.312C73.3067 22.4267 73.0507 21.4293 73.0507 20.32C73.0507 19.2107 73.3067 18.2187 73.8187 17.344C74.3414 16.4587 75.0454 15.7707 75.9307 15.28C76.8161 14.7893 77.7867 14.544 78.8428 14.544C79.9094 14.544 80.8801 14.7893 81.7548 15.28C82.6401 15.7707 83.3388 16.4587 83.8507 17.344C84.3628 18.2187 84.6188 19.2107 84.6188 20.32C84.6188 21.4293 84.3628 22.4267 83.8507 23.312C83.3388 24.1867 82.6401 24.8747 81.7548 25.376C80.8694 25.8667 79.8988 26.112 78.8428 26.112ZM78.8428 23.2C79.6427 23.2 80.2721 22.9387 80.7308 22.416C81.2001 21.8933 81.4348 21.1947 81.4348 20.32C81.4348 19.424 81.2001 18.72 80.7308 18.208C80.2721 17.6853 79.6427 17.424 78.8428 17.424C78.0321 17.424 77.3974 17.6853 76.9387 18.208C76.4801 18.72 76.2507 19.424 76.2507 20.32C76.2507 21.2053 76.4801 21.9093 76.9387 22.432C77.3974 22.944 78.0321 23.2 78.8428 23.2ZM92.0605 26L89.8205 21.84H89.4845V26H86.3485V14.72H91.2925C92.1992 14.72 92.9672 14.88 93.5965 15.2C94.2258 15.5093 94.7005 15.9413 95.0205 16.496C95.3405 17.04 95.5005 17.6533 95.5005 18.336C95.5005 19.104 95.2872 19.7813 94.8605 20.368C94.4445 20.944 93.8312 21.3547 93.0205 21.6L95.5645 26H92.0605ZM89.4845 19.696H91.0365C91.4632 19.696 91.7832 19.5947 91.9965 19.392C92.2098 19.1893 92.3165 18.896 92.3165 18.512C92.3165 18.1493 92.2045 17.8667 91.9805 17.664C91.7672 17.4507 91.4525 17.344 91.0365 17.344H89.4845V19.696ZM103.919 26L100.383 21.056V26H97.2466V14.72H100.383V19.584L103.887 14.72H107.503L103.359 20.192L107.711 26H103.919ZM114.584 26.112C113.528 26.112 112.557 25.8667 111.672 25.376C110.787 24.8747 110.083 24.1867 109.56 23.312C109.048 22.4267 108.792 21.4293 108.792 20.32C108.792 19.2107 109.048 18.2187 109.56 17.344C110.083 16.4587 110.787 15.7707 111.672 15.28C112.557 14.7893 113.528 14.544 114.584 14.544C115.651 14.544 116.621 14.7893 117.496 15.28C118.381 15.7707 119.08 16.4587 119.592 17.344C120.104 18.2187 120.36 19.2107 120.36 20.32C120.36 21.4293 120.104 22.4267 119.592 23.312C119.08 24.1867 118.381 24.8747 117.496 25.376C116.611 25.8667 115.64 26.112 114.584 26.112ZM114.584 23.2C115.384 23.2 116.013 22.9387 116.472 22.416C116.941 21.8933 117.176 21.1947 117.176 20.32C117.176 19.424 116.941 18.72 116.472 18.208C116.013 17.6853 115.384 17.424 114.584 17.424C113.773 17.424 113.139 17.6853 112.68 18.208C112.221 18.72 111.992 19.424 111.992 20.32C111.992 21.2053 112.221 21.9093 112.68 22.432C113.139 22.944 113.773 23.2 114.584 23.2ZM125.162 14.72V21.264C125.162 21.872 125.3 22.3413 125.578 22.672C125.866 23.0027 126.298 23.168 126.874 23.168C127.45 23.168 127.882 23.0027 128.17 22.672C128.468 22.3307 128.618 21.8613 128.618 21.264V14.72H131.754V21.264C131.754 22.2987 131.535 23.184 131.098 23.92C130.66 24.6453 130.063 25.1947 129.306 25.568C128.559 25.9307 127.727 26.112 126.81 26.112C125.892 26.112 125.071 25.9307 124.346 25.568C123.631 25.1947 123.066 24.6453 122.65 23.92C122.244 23.1947 122.042 22.3093 122.042 21.264V14.72H125.162ZM142.296 14.72V17.216H139.288V26H136.152V17.216H133.176V14.72H142.296Z" fill="white"/>
<path d="M146.855 20.416C146.855 19.328 147.106 18.352 147.607 17.488C148.119 16.624 148.807 15.952 149.671 15.472C150.546 14.9813 151.5 14.736 152.535 14.736C153.719 14.736 154.77 15.0293 155.687 15.616C156.615 16.192 157.287 17.0133 157.703 18.08H155.511C155.223 17.4933 154.823 17.056 154.311 16.768C153.799 16.48 153.207 16.336 152.535 16.336C151.799 16.336 151.143 16.5013 150.567 16.832C149.991 17.1627 149.538 17.6373 149.207 18.256C148.887 18.8747 148.727 19.5947 148.727 20.416C148.727 21.2373 148.887 21.9573 149.207 22.576C149.538 23.1947 149.991 23.6747 150.567 24.016C151.143 24.3467 151.799 24.512 152.535 24.512C153.207 24.512 153.799 24.368 154.311 24.08C154.823 23.792 155.223 23.3547 155.511 22.768H157.703C157.287 23.8347 156.615 24.656 155.687 25.232C154.77 25.808 153.719 26.096 152.535 26.096C151.49 26.096 150.535 25.856 149.671 25.376C148.807 24.8853 148.119 24.208 147.607 23.344C147.106 22.48 146.855 21.504 146.855 20.416ZM165.934 26L163.374 21.552H161.982V26H160.158V14.88H163.998C164.851 14.88 165.571 15.0293 166.158 15.328C166.755 15.6267 167.198 16.0267 167.486 16.528C167.785 17.0293 167.934 17.5893 167.934 18.208C167.934 18.9333 167.721 19.5947 167.294 20.192C166.878 20.7787 166.233 21.1787 165.358 21.392L168.11 26H165.934ZM161.982 20.096H163.998C164.681 20.096 165.193 19.9253 165.534 19.584C165.886 19.2427 166.062 18.784 166.062 18.208C166.062 17.632 165.891 17.184 165.55 16.864C165.209 16.5333 164.691 16.368 163.998 16.368H161.982V20.096ZM172.411 16.352V19.616H176.251V21.104H172.411V24.512H176.731V26H170.587V14.864H176.731V16.352H172.411ZM186.002 23.728H181.346L180.546 26H178.642L182.626 14.864H184.738L188.722 26H186.802L186.002 23.728ZM185.49 22.24L183.682 17.072L181.858 22.24H185.49ZM197.958 14.88V16.368H194.998V26H193.174V16.368H190.198V14.88H197.958ZM205.198 26.112C204.163 26.112 203.208 25.872 202.334 25.392C201.47 24.9013 200.782 24.224 200.27 23.36C199.768 22.4853 199.518 21.504 199.518 20.416C199.518 19.328 199.768 18.352 200.27 17.488C200.782 16.624 201.47 15.952 202.334 15.472C203.208 14.9813 204.163 14.736 205.198 14.736C206.243 14.736 207.198 14.9813 208.062 15.472C208.936 15.952 209.624 16.624 210.126 17.488C210.627 18.352 210.878 19.328 210.878 20.416C210.878 21.504 210.627 22.4853 210.126 23.36C209.624 24.224 208.936 24.9013 208.062 25.392C207.198 25.872 206.243 26.112 205.198 26.112ZM205.198 24.528C205.934 24.528 206.59 24.3627 207.166 24.032C207.742 23.6907 208.19 23.2107 208.51 22.592C208.84 21.9627 209.006 21.2373 209.006 20.416C209.006 19.5947 208.84 18.8747 208.51 18.256C208.19 17.6373 207.742 17.1627 207.166 16.832C206.59 16.5013 205.934 16.336 205.198 16.336C204.462 16.336 203.806 16.5013 203.23 16.832C202.654 17.1627 202.2 17.6373 201.87 18.256C201.55 18.8747 201.39 19.5947 201.39 20.416C201.39 21.2373 201.55 21.9627 201.87 22.592C202.2 23.2107 202.654 23.6907 203.23 24.032C203.806 24.3627 204.462 24.528 205.198 24.528ZM218.768 26L216.208 21.552H214.816V26H212.992V14.88H216.832C217.686 14.88 218.406 15.0293 218.992 15.328C219.59 15.6267 220.032 16.0267 220.32 16.528C220.619 17.0293 220.768 17.5893 220.768 18.208C220.768 18.9333 220.555 19.5947 220.128 20.192C219.712 20.7787 219.067 21.1787 218.192 21.392L220.944 26H218.768ZM214.816 20.096H216.832C217.515 20.096 218.027 19.9253 218.368 19.584C218.72 19.2427 218.896 18.784 218.896 18.208C218.896 17.632 218.726 17.184 218.384 16.864C218.043 16.5333 217.526 16.368 216.832 16.368H214.816V20.096Z" fill="white" fill-opacity="0.5"/>
<rect width="40" height="40" rx="8" fill="white"/>
<path d="M15.0742 19.5173L15.88 14.6596L21.2239 14.0547C21.9753 14.3735 22.3511 14.533 22.3511 14.533C23.903 18.0388 24.6789 19.7917 24.6789 19.7917L28.9995 17.6091" stroke="#3D2278" stroke-width="2.27753" stroke-linecap="round" stroke-linejoin="round"/>
<path d="M12 32L16.3702 27.4294L18.3776 21.2197L20.3544 21.615L25.2417 25.6217L19.5641 29.2604" stroke="#3D2278" stroke-width="2.58811" stroke-linecap="round" stroke-linejoin="round"/>
<path d="M21.4653 14.4648L19.2852 21.7392" stroke="#3D2278" stroke-width="4.65859"/>
<path d="M24.6631 10.1797C24.6631 11.0747 23.895 11.8418 22.8951 11.8418C21.8952 11.8418 21.127 11.0747 21.127 10.1797C21.127 9.28464 21.8952 8.51762 22.8951 8.51762C23.895 8.51762 24.6631 9.28464 24.6631 10.1797Z" fill="#3D2278" stroke="#3D2278" stroke-width="1.03524"/>
</svg>
