<svg width="25" height="26" viewBox="0 0 25 26" fill="none" xmlns="http://www.w3.org/2000/svg">
<path d="M24.9994 13.2976C24.9994 12.414 24.9291 11.5256 24.7792 10.6562H12.752V15.662H19.6394C19.3536 17.2764 18.4352 18.7046 17.0906 19.6121V22.8601H21.1996C23.6125 20.5961 24.9994 17.2526 24.9994 13.2976Z" fill="#4285F4"/>
<path d="M12.7501 26.0004C16.1892 26.0004 19.0894 24.8493 21.2024 22.8623L17.0934 19.6143C15.9502 20.4072 14.4743 20.8562 12.7548 20.8562C9.42826 20.8562 6.6077 18.5682 5.59567 15.4922H1.35547V18.8405C3.52008 23.2301 7.92896 26.0004 12.7501 26.0004Z" fill="#34A853"/>
<path d="M5.59192 15.4914C5.05779 13.877 5.05779 12.1288 5.59192 10.5143V7.16602H1.3564C-0.452132 10.8391 -0.452132 15.1666 1.3564 18.8397L5.59192 15.4914Z" fill="#FBBC04"/>
<path d="M12.7501 5.14513C14.568 5.11648 16.325 5.81384 17.6416 7.09394L21.2821 3.38262C18.9769 1.17589 15.9174 -0.0373358 12.7501 0.000875999C7.92896 0.000875999 3.52008 2.77123 1.35547 7.16558L5.59099 10.5139C6.59833 7.43306 9.42357 5.14513 12.7501 5.14513Z" fill="#EA4335"/>
</svg>
