<svg width="22" height="24" viewBox="0 0 22 24" fill="none" xmlns="http://www.w3.org/2000/svg">
<path d="M18.9489 11.3796C18.7211 11.3796 18.5027 11.2918 18.3416 11.1355C18.1806 10.9793 18.0901 10.7673 18.0901 10.5463V8.19305C18.0901 4.85984 14.9158 2.19327 11.0133 2.19327C7.11069 2.19327 3.93643 4.89317 3.93643 8.19305V10.5463C3.93643 10.7673 3.84594 10.9793 3.68488 11.1355C3.52382 11.2918 3.30537 11.3796 3.07759 11.3796C2.84981 11.3796 2.63136 11.2918 2.4703 11.1355C2.30923 10.9793 2.21875 10.7673 2.21875 10.5463V8.19305C2.21875 3.95321 6.16941 0.5 11.0133 0.5C15.8571 0.5 19.8078 3.95321 19.8078 8.19305V10.5463C19.8087 10.656 19.7871 10.7647 19.7442 10.8662C19.7014 10.9677 19.6382 11.06 19.5583 11.1375C19.4783 11.2151 19.3833 11.2764 19.2787 11.318C19.1741 11.3595 19.062 11.3805 18.9489 11.3796Z" fill="white"/>
<path d="M16.6271 19.22C16.3993 19.22 16.1809 19.1322 16.0198 18.9759C15.8588 18.8196 15.7683 18.6077 15.7683 18.3867V10.4736C15.7754 10.2573 15.869 10.0521 16.0293 9.90156C16.1896 9.75101 16.404 9.66688 16.6271 9.66699C19.5884 9.66699 22 11.8202 22 14.4601C22 17.1 19.5884 19.22 16.6271 19.22ZM17.4859 11.3936V17.4667C18.2379 17.3459 18.9246 16.9792 19.432 16.4274C19.9395 15.8756 20.2371 15.172 20.2755 14.4335C20.2386 13.6938 19.9417 12.9886 19.4341 12.4355C18.9265 11.8823 18.239 11.5146 17.4859 11.3936ZM5.37289 19.22C2.41162 19.22 0 17.0734 0 14.4335C0 11.7936 2.41162 9.66699 5.37289 9.66699C5.60067 9.66699 5.81912 9.75479 5.98018 9.91106C6.14125 10.0673 6.23173 10.2793 6.23173 10.5003V18.3867C6.23173 18.6077 6.14125 18.8196 5.98018 18.9759C5.81912 19.1322 5.60067 19.22 5.37289 19.22ZM4.51405 11.3936C3.76103 11.5146 3.07347 11.8823 2.56591 12.4355C2.05834 12.9886 1.7614 13.6938 1.72455 14.4335C1.76293 15.172 2.06055 15.8756 2.56799 16.4274C3.07542 16.9792 3.76213 17.3459 4.51405 17.4667V11.3936Z" fill="white"/>
<path d="M16.3449 21.9326H13.5004C13.2727 21.9326 13.0542 21.8448 12.8932 21.6886C12.7321 21.5323 12.6416 21.3203 12.6416 21.0993C12.6416 20.8783 12.7321 20.6664 12.8932 20.5101C13.0542 20.3538 13.2727 20.266 13.5004 20.266H16.3449C16.7895 20.266 17.2159 20.0946 17.5303 19.7896C17.8447 19.4845 18.0214 19.0708 18.0214 18.6394V18.2728C18.0214 18.0518 18.1118 17.8398 18.2729 17.6835C18.434 17.5272 18.6524 17.4395 18.8802 17.4395C19.108 17.4395 19.3264 17.5272 19.4875 17.6835C19.6486 17.8398 19.739 18.0518 19.739 18.2728V18.6394C19.739 19.5128 19.3814 20.3505 18.7449 20.9681C18.1084 21.5857 17.2451 21.9326 16.3449 21.9326Z" fill="white"/>
<path d="M12.0302 23.5H10.3332C9.70998 23.5 9.1123 23.2598 8.67163 22.8322C8.23096 22.4047 7.9834 21.8248 7.9834 21.2201V21.1268C7.98522 20.5232 8.23359 19.9451 8.67406 19.5189C9.11453 19.0928 9.71117 18.8535 10.3332 18.8535H12.0302C12.6516 18.8535 13.2476 19.093 13.6869 19.5193C14.1263 19.9457 14.3732 20.5239 14.3732 21.1268V21.2201C14.3732 21.8236 14.1265 22.4025 13.6874 22.8299C13.2482 23.2573 12.6523 23.4982 12.0302 23.5ZM10.3469 20.5201C10.1805 20.5201 10.0207 20.5838 9.90237 20.6974C9.78402 20.811 9.71663 20.9653 9.71482 21.1268V21.2201C9.71482 21.3828 9.78141 21.5388 9.89996 21.6538C10.0185 21.7688 10.1793 21.8334 10.3469 21.8334H12.0302C12.1967 21.8316 12.3557 21.7663 12.4728 21.6514C12.5898 21.5366 12.6555 21.3816 12.6555 21.2201V21.1268C12.6555 20.9659 12.5896 20.8116 12.4724 20.6978C12.3551 20.584 12.1961 20.5201 12.0302 20.5201H10.3469Z" fill="white"/>
</svg>
