<svg width="60" height="60" viewBox="0 0 60 60" fill="none" xmlns="http://www.w3.org/2000/svg">
<g filter="url(#filter0_d_1030_1592)">
<rect x="10" y="10" width="40" height="40" rx="20" fill="white"/>
<rect x="10.75" y="10.75" width="38.5" height="38.5" rx="19.25" stroke="#0F0A19" stroke-opacity="0.1" stroke-width="1.5"/>
<g opacity="0.8">
<path d="M30.0001 24.8652C28.9845 24.8652 27.9918 25.1664 27.1473 25.7306C26.3029 26.2948 25.6448 27.0968 25.2561 28.0351C24.8675 28.9734 24.7658 30.0058 24.9639 31.0019C25.162 31.998 25.6511 32.9129 26.3692 33.631C27.0873 34.3492 28.0023 34.8382 28.9984 35.0363C29.9944 35.2345 31.0269 35.1328 31.9652 34.7441C32.9034 34.3555 33.7054 33.6973 34.2696 32.8529C34.8339 32.0085 35.135 31.0157 35.135 30.0001C35.135 29.3258 35.0022 28.6581 34.7442 28.0351C34.4861 27.4121 34.1079 26.846 33.6311 26.3692C33.1543 25.8924 32.5882 25.5141 31.9652 25.2561C31.3422 24.998 30.6745 24.8652 30.0001 24.8652ZM30.0001 33.3337C29.3408 33.3337 28.6963 33.1382 28.1481 32.7719C27.5999 32.4056 27.1726 31.8849 26.9203 31.2758C26.668 30.6667 26.602 29.9964 26.7306 29.3497C26.8592 28.7031 27.1767 28.1091 27.6429 27.6429C28.1092 27.1767 28.7031 26.8592 29.3498 26.7305C29.9965 26.6019 30.6667 26.6679 31.2759 26.9203C31.885 27.1726 32.4056 27.5999 32.7719 28.1481C33.1382 28.6963 33.3337 29.3408 33.3337 30.0001C33.3338 30.4379 33.2476 30.8714 33.0801 31.2759C32.9126 31.6804 32.667 32.0479 32.3575 32.3574C32.0479 32.667 31.6804 32.9126 31.2759 33.0801C30.8714 33.2476 30.4379 33.3338 30.0001 33.3337Z" fill="#0F0A19" stroke="white" stroke-width="0.5"/>
<path d="M39.9395 25.8772C39.9231 25.0477 39.766 24.2269 39.475 23.4499C39.2235 22.7828 38.8299 22.1784 38.3215 21.6785C37.8224 21.1696 37.2181 20.7759 36.5509 20.525C35.774 20.2338 34.9532 20.0767 34.1236 20.0605C33.0574 20.012 32.7165 20 30.0008 20C27.2851 20 26.944 20.0113 25.8772 20.0605C25.0476 20.0769 24.2269 20.234 23.4499 20.525C22.7826 20.7762 22.1781 21.1698 21.6785 21.6785C21.1693 22.1777 20.7757 22.7823 20.5251 23.4499C20.2341 24.2269 20.077 25.0477 20.0606 25.8772C20.0113 26.9434 20 27.2843 20 30C20 32.7157 20.0113 33.0565 20.0606 34.1228C20.077 34.9523 20.234 35.7731 20.5251 36.5501C20.7757 37.2176 21.1694 37.8222 21.6785 38.3215C22.1784 38.8299 22.7828 39.2234 23.4499 39.4749C24.2269 39.7659 25.0477 39.9229 25.8772 39.9394C26.944 39.9879 27.2843 40 30 40C32.7157 40 33.0566 39.9887 34.1228 39.9394C34.9523 39.923 35.7731 39.766 36.5501 39.4749C37.2145 39.2181 37.8179 38.8252 38.3215 38.3215C38.8252 37.8178 39.2181 37.2145 39.475 36.5501C39.7663 35.7732 39.9234 34.9523 39.9395 34.1228C39.988 33.0558 39.9992 32.7157 39.9992 30C39.9992 27.2843 39.988 26.9434 39.9395 25.8772ZM38.1405 34.0413C38.1328 34.6754 38.0164 35.3035 37.7965 35.8983C37.63 36.3296 37.3751 36.7212 37.0482 37.048C36.7213 37.3748 36.3295 37.6295 35.8982 37.7957C35.3035 38.0162 34.6753 38.1326 34.0411 38.1397C32.987 38.1882 32.6705 38.1979 29.9999 38.1979C27.3294 38.1979 27.0137 38.1882 25.9599 38.1397C25.3258 38.1325 24.6976 38.0161 24.1029 37.7957C23.6685 37.6352 23.2755 37.3797 22.9526 37.0477C22.6202 36.7256 22.3646 36.3327 22.2046 35.8983C21.9841 35.3037 21.8678 34.6754 21.8606 34.0413C21.8121 32.9872 21.8025 32.6706 21.8025 30.0001C21.8025 27.3296 21.813 27.0138 21.8606 25.9589C21.8686 25.3248 21.985 24.6967 22.2046 24.1019C22.3651 23.6675 22.6207 23.2745 22.9526 22.9516C23.275 22.619 23.6681 22.3634 24.1029 22.2036C24.6975 21.9832 25.3258 21.8668 25.9599 21.8596C27.014 21.8111 27.3306 21.8015 29.9999 21.8015C32.6693 21.8015 32.9862 21.812 34.0411 21.8596C34.6752 21.8676 35.3033 21.984 35.8982 22.2036C36.3297 22.3699 36.7215 22.6247 37.0484 22.9516C37.3754 23.2786 37.6302 23.6704 37.7965 24.1019C38.0169 24.6965 38.1333 25.3247 38.1405 25.9589C38.189 27.0139 38.1986 27.3296 38.1986 30.0001C38.1986 32.6705 38.189 32.9863 38.1405 34.0413Z" fill="#0F0A19" stroke="white" stroke-width="0.5"/>
<path d="M35.3387 23.4629C35.0205 23.4629 34.7149 23.5894 34.49 23.8144C34.265 24.0394 34.1386 24.3446 34.1387 24.6628C34.1387 24.981 34.2651 25.2861 34.4901 25.5111C34.7151 25.7361 35.0203 25.8625 35.3385 25.8625C35.6566 25.8625 35.9618 25.7361 36.1868 25.5111C36.4118 25.2861 36.5382 24.981 36.5383 24.6628C36.5383 24.3446 36.4119 24.0394 36.187 23.8144C35.962 23.5894 35.6569 23.4629 35.3387 23.4629Z" fill="#0F0A19" stroke="white" stroke-width="0.5"/>
</g>
</g>
<defs>
<filter id="filter0_d_1030_1592" x="0" y="0" width="60" height="60" filterUnits="userSpaceOnUse" color-interpolation-filters="sRGB">
<feFlood flood-opacity="0" result="BackgroundImageFix"/>
<feColorMatrix in="SourceAlpha" type="matrix" values="0 0 0 0 0 0 0 0 0 0 0 0 0 0 0 0 0 0 127 0" result="hardAlpha"/>
<feOffset/>
<feGaussianBlur stdDeviation="5"/>
<feComposite in2="hardAlpha" operator="out"/>
<feColorMatrix type="matrix" values="0 0 0 0 0 0 0 0 0 0 0 0 0 0 0 0 0 0 0.05 0"/>
<feBlend mode="normal" in2="BackgroundImageFix" result="effect1_dropShadow_1030_1592"/>
<feBlend mode="normal" in="SourceGraphic" in2="effect1_dropShadow_1030_1592" result="shape"/>
</filter>
</defs>
</svg>
