<svg width="34" height="34" viewBox="0 0 34 34" fill="none" xmlns="http://www.w3.org/2000/svg">
<rect x="0.75" y="0.75" width="32.5" height="32.5" rx="16.25" stroke="white" stroke-opacity="0.2" stroke-width="1.5"/>
<path fill-rule="evenodd" clip-rule="evenodd" d="M13.9464 22.6672H11.3311V14.821H13.9464V22.6672Z" fill="white"/>
<path fill-rule="evenodd" clip-rule="evenodd" d="M12.631 13.0773H12.6161C11.8356 13.0773 11.3311 12.4958 11.3311 11.7692C11.3311 11.0271 11.851 10.4619 12.6463 10.4619C13.4416 10.4619 13.9314 11.0271 13.9464 11.7692C13.9464 12.4958 13.4416 13.0773 12.631 13.0773Z" fill="white"/>
<path fill-rule="evenodd" clip-rule="evenodd" d="M23.5375 22.667H20.9675V18.5657C20.9675 17.5356 20.5956 16.8326 19.6652 16.8326C18.9551 16.8326 18.5322 17.3065 18.3464 17.7642C18.2785 17.9282 18.2618 18.1568 18.2618 18.3859V22.6672H15.6914C15.6914 22.6672 15.7253 15.7206 15.6914 15.0013H18.2618V16.0871C18.6029 15.5651 19.2139 14.821 20.5784 14.821C22.2697 14.821 23.5376 15.9169 23.5376 18.2716L23.5375 22.667Z" fill="white"/>
</svg>
