<svg width="54" height="54" viewBox="0 0 54 54" fill="none" xmlns="http://www.w3.org/2000/svg">
<path d="M27 2.7C27 1.20883 28.2119 -0.0139962 29.6956 0.134863C34.6827 0.635205 39.4516 2.51661 43.4536 5.59257C48.172 9.21906 51.56 14.3028 53.0911 20.0535C54.6222 25.8041 54.2105 31.8995 51.92 37.3921C49.6295 42.8846 45.5886 47.4665 40.4254 50.4256C35.2622 53.3847 29.2661 54.555 23.3692 53.7548C17.4722 52.9545 12.0049 50.2284 7.81705 46.0004C3.62923 41.7723 0.955582 36.2791 0.211746 30.3748C-0.419168 25.3668 0.368258 20.3011 2.45757 15.7452C3.07916 14.3898 4.74686 13.9623 6.03347 14.7161C7.32008 15.4699 7.73463 17.1192 7.14711 18.4898C5.6403 22.0049 5.08734 25.8734 5.5694 29.6999C6.16447 34.4233 8.30338 38.8179 11.6536 42.2003C15.0039 45.5828 19.3778 47.7636 24.0953 48.4038C28.8129 49.044 33.6098 48.1077 37.7403 45.7405C41.8709 43.3732 45.1036 39.7077 46.936 35.3136C48.7684 30.9196 49.0977 26.0433 47.8729 21.4428C46.648 16.8422 43.9376 12.7752 40.1629 9.87405C37.1051 7.52383 33.4876 6.04532 29.693 5.56851C28.2135 5.3826 27 4.19117 27 2.7Z" fill="url(#paint0_linear_324_7036)"/>
<defs>
<linearGradient id="paint0_linear_324_7036" x1="54" y1="17.7955" x2="2.57057e-06" y2="27.4854" gradientUnits="userSpaceOnUse">
<stop stop-color="#3D2278"/>
<stop offset="1" stop-color="#713FDE"/>
</linearGradient>
</defs>
</svg>
