<svg width="225" height="40" viewBox="0 0 225 40" fill="none" xmlns="http://www.w3.org/2000/svg">
<path d="M71.784 14.72L69.016 26H65.16L63.608 19.088L62.024 26H58.168L55.432 14.72H58.824L60.136 22.432L61.912 14.72H65.352L67.08 22.368L68.392 14.72H71.784ZM78.8428 26.112C77.7867 26.112 76.8161 25.8667 75.9307 25.376C75.0454 24.8747 74.3414 24.1867 73.8187 23.312C73.3067 22.4267 73.0507 21.4293 73.0507 20.32C73.0507 19.2107 73.3067 18.2187 73.8187 17.344C74.3414 16.4587 75.0454 15.7707 75.9307 15.28C76.8161 14.7893 77.7867 14.544 78.8428 14.544C79.9094 14.544 80.8801 14.7893 81.7548 15.28C82.6401 15.7707 83.3388 16.4587 83.8507 17.344C84.3628 18.2187 84.6188 19.2107 84.6188 20.32C84.6188 21.4293 84.3628 22.4267 83.8507 23.312C83.3388 24.1867 82.6401 24.8747 81.7548 25.376C80.8694 25.8667 79.8988 26.112 78.8428 26.112ZM78.8428 23.2C79.6427 23.2 80.2721 22.9387 80.7308 22.416C81.2001 21.8933 81.4348 21.1947 81.4348 20.32C81.4348 19.424 81.2001 18.72 80.7308 18.208C80.2721 17.6853 79.6427 17.424 78.8428 17.424C78.0321 17.424 77.3974 17.6853 76.9387 18.208C76.4801 18.72 76.2507 19.424 76.2507 20.32C76.2507 21.2053 76.4801 21.9093 76.9387 22.432C77.3974 22.944 78.0321 23.2 78.8428 23.2ZM92.0605 26L89.8205 21.84H89.4845V26H86.3485V14.72H91.2925C92.1992 14.72 92.9672 14.88 93.5965 15.2C94.2258 15.5093 94.7005 15.9413 95.0205 16.496C95.3405 17.04 95.5005 17.6533 95.5005 18.336C95.5005 19.104 95.2872 19.7813 94.8605 20.368C94.4445 20.944 93.8312 21.3547 93.0205 21.6L95.5645 26H92.0605ZM89.4845 19.696H91.0365C91.4632 19.696 91.7832 19.5947 91.9965 19.392C92.2098 19.1893 92.3165 18.896 92.3165 18.512C92.3165 18.1493 92.2045 17.8667 91.9805 17.664C91.7672 17.4507 91.4525 17.344 91.0365 17.344H89.4845V19.696ZM103.919 26L100.383 21.056V26H97.2466V14.72H100.383V19.584L103.887 14.72H107.503L103.359 20.192L107.711 26H103.919ZM114.584 26.112C113.528 26.112 112.557 25.8667 111.672 25.376C110.787 24.8747 110.083 24.1867 109.56 23.312C109.048 22.4267 108.792 21.4293 108.792 20.32C108.792 19.2107 109.048 18.2187 109.56 17.344C110.083 16.4587 110.787 15.7707 111.672 15.28C112.557 14.7893 113.528 14.544 114.584 14.544C115.651 14.544 116.621 14.7893 117.496 15.28C118.381 15.7707 119.08 16.4587 119.592 17.344C120.104 18.2187 120.36 19.2107 120.36 20.32C120.36 21.4293 120.104 22.4267 119.592 23.312C119.08 24.1867 118.381 24.8747 117.496 25.376C116.611 25.8667 115.64 26.112 114.584 26.112ZM114.584 23.2C115.384 23.2 116.013 22.9387 116.472 22.416C116.941 21.8933 117.176 21.1947 117.176 20.32C117.176 19.424 116.941 18.72 116.472 18.208C116.013 17.6853 115.384 17.424 114.584 17.424C113.773 17.424 113.139 17.6853 112.68 18.208C112.221 18.72 111.992 19.424 111.992 20.32C111.992 21.2053 112.221 21.9093 112.68 22.432C113.139 22.944 113.773 23.2 114.584 23.2ZM125.162 14.72V21.264C125.162 21.872 125.3 22.3413 125.578 22.672C125.866 23.0027 126.298 23.168 126.874 23.168C127.45 23.168 127.882 23.0027 128.17 22.672C128.468 22.3307 128.618 21.8613 128.618 21.264V14.72H131.754V21.264C131.754 22.2987 131.535 23.184 131.098 23.92C130.66 24.6453 130.063 25.1947 129.306 25.568C128.559 25.9307 127.727 26.112 126.81 26.112C125.892 26.112 125.071 25.9307 124.346 25.568C123.631 25.1947 123.066 24.6453 122.65 23.92C122.244 23.1947 122.042 22.3093 122.042 21.264V14.72H125.162ZM142.296 14.72V17.216H139.288V26H136.152V17.216H133.176V14.72H142.296ZM146.775 20.336C146.775 19.2267 147.004 18.24 147.463 17.376C147.932 16.5013 148.594 15.824 149.447 15.344C150.3 14.8533 151.282 14.608 152.391 14.608C153.799 14.608 154.983 14.9867 155.943 15.744C156.903 16.4907 157.522 17.5093 157.799 18.8H154.423C154.22 18.3733 153.938 18.048 153.575 17.824C153.223 17.6 152.812 17.488 152.343 17.488C151.618 17.488 151.036 17.7493 150.599 18.272C150.172 18.784 149.959 19.472 149.959 20.336C149.959 21.2107 150.172 21.9093 150.599 22.432C151.036 22.944 151.618 23.2 152.343 23.2C152.812 23.2 153.223 23.088 153.575 22.864C153.938 22.64 154.22 22.3147 154.423 21.888H157.799C157.522 23.1787 156.903 24.2027 155.943 24.96C154.983 25.7067 153.799 26.08 152.391 26.08C151.282 26.08 150.3 25.84 149.447 25.36C148.594 24.8693 147.932 24.192 147.463 23.328C147.004 22.4533 146.775 21.456 146.775 20.336ZM165.316 26L163.076 21.84H162.74V26H159.604V14.72H164.548C165.455 14.72 166.223 14.88 166.852 15.2C167.481 15.5093 167.956 15.9413 168.276 16.496C168.596 17.04 168.756 17.6533 168.756 18.336C168.756 19.104 168.543 19.7813 168.116 20.368C167.7 20.944 167.087 21.3547 166.276 21.6L168.82 26H165.316ZM162.74 19.696H164.292C164.719 19.696 165.039 19.5947 165.252 19.392C165.465 19.1893 165.572 18.896 165.572 18.512C165.572 18.1493 165.46 17.8667 165.236 17.664C165.023 17.4507 164.708 17.344 164.292 17.344H162.74V19.696ZM173.638 17.232V19.072H177.238V21.456H173.638V23.488H177.718V26H170.502V14.72H177.718V17.232H173.638ZM186.724 24.16H182.724L182.116 26H178.82L182.932 14.72H186.548L190.644 26H187.332L186.724 24.16ZM185.94 21.76L184.724 18.112L183.524 21.76H185.94ZM200.482 14.72V17.216H197.474V26H194.338V17.216H191.362V14.72H200.482ZM207.37 26.112C206.314 26.112 205.344 25.8667 204.458 25.376C203.573 24.8747 202.869 24.1867 202.346 23.312C201.834 22.4267 201.578 21.4293 201.578 20.32C201.578 19.2107 201.834 18.2187 202.346 17.344C202.869 16.4587 203.573 15.7707 204.458 15.28C205.344 14.7893 206.314 14.544 207.37 14.544C208.437 14.544 209.408 14.7893 210.282 15.28C211.168 15.7707 211.866 16.4587 212.378 17.344C212.89 18.2187 213.146 19.2107 213.146 20.32C213.146 21.4293 212.89 22.4267 212.378 23.312C211.866 24.1867 211.168 24.8747 210.282 25.376C209.397 25.8667 208.426 26.112 207.37 26.112ZM207.37 23.2C208.17 23.2 208.8 22.9387 209.258 22.416C209.728 21.8933 209.962 21.1947 209.962 20.32C209.962 19.424 209.728 18.72 209.258 18.208C208.8 17.6853 208.17 17.424 207.37 17.424C206.56 17.424 205.925 17.6853 205.466 18.208C205.008 18.72 204.778 19.424 204.778 20.32C204.778 21.2053 205.008 21.9093 205.466 22.432C205.925 22.944 206.56 23.2 207.37 23.2ZM220.588 26L218.348 21.84H218.012V26H214.876V14.72H219.82C220.727 14.72 221.495 14.88 222.124 15.2C222.753 15.5093 223.228 15.9413 223.548 16.496C223.868 17.04 224.028 17.6533 224.028 18.336C224.028 19.104 223.815 19.7813 223.388 20.368C222.972 20.944 222.359 21.3547 221.548 21.6L224.092 26H220.588ZM218.012 19.696H219.564C219.991 19.696 220.311 19.5947 220.524 19.392C220.737 19.1893 220.844 18.896 220.844 18.512C220.844 18.1493 220.732 17.8667 220.508 17.664C220.295 17.4507 219.98 17.344 219.564 17.344H218.012V19.696Z" fill="white"/>
<rect width="40" height="40" rx="8" fill="#3D2278"/>
<path d="M15.0742 19.5173L15.88 14.6596L21.2239 14.0547C21.9753 14.3735 22.3511 14.533 22.3511 14.533C23.903 18.0388 24.6789 19.7917 24.6789 19.7917L28.9995 17.6091" stroke="white" stroke-width="2.27753" stroke-linecap="round" stroke-linejoin="round"/>
<path d="M12 32L16.3702 27.4294L18.3776 21.2197L20.3544 21.615L25.2417 25.6217L19.5641 29.2604" stroke="white" stroke-width="2.58811" stroke-linecap="round" stroke-linejoin="round"/>
<path d="M21.4653 14.4648L19.2852 21.7392" stroke="white" stroke-width="4.65859"/>
<path d="M22.8951 12.3594C24.1574 12.3594 25.1807 11.3835 25.1807 10.1797C25.1807 8.97588 24.1574 8 22.8951 8C21.6327 8 20.6094 8.97588 20.6094 10.1797C20.6094 11.3835 21.6327 12.3594 22.8951 12.3594Z" fill="white"/>
</svg>
