<svg width="197" height="40" viewBox="0 0 197 40" fill="none" xmlns="http://www.w3.org/2000/svg">
<path d="M68.784 14.72L66.016 26H62.16L60.608 19.088L59.024 26H55.168L52.432 14.72H55.824L57.136 22.432L58.912 14.72H62.352L64.08 22.368L65.392 14.72H68.784ZM74.6107 26.112C73.7147 26.112 72.9094 25.9253 72.1947 25.552C71.4907 25.1787 70.9361 24.6453 70.5307 23.952C70.1254 23.2587 69.9227 22.4427 69.9227 21.504C69.9227 20.576 70.1254 19.7653 70.5307 19.072C70.9467 18.3787 71.5067 17.8453 72.2107 17.472C72.9254 17.0987 73.7307 16.912 74.6267 16.912C75.5227 16.912 76.3227 17.0987 77.0268 17.472C77.7414 17.8453 78.3014 18.3787 78.7067 19.072C79.1228 19.7653 79.3308 20.576 79.3308 21.504C79.3308 22.432 79.1228 23.248 78.7067 23.952C78.3014 24.6453 77.7414 25.1787 77.0268 25.552C76.3121 25.9253 75.5067 26.112 74.6107 26.112ZM74.6107 23.392C75.0481 23.392 75.4107 23.232 75.6988 22.912C75.9974 22.5813 76.1467 22.112 76.1467 21.504C76.1467 20.896 75.9974 20.432 75.6988 20.112C75.4107 19.792 75.0534 19.632 74.6267 19.632C74.2001 19.632 73.8428 19.792 73.5547 20.112C73.2667 20.432 73.1227 20.896 73.1227 21.504C73.1227 22.1227 73.2614 22.592 73.5387 22.912C73.8161 23.232 74.1734 23.392 74.6107 23.392ZM84.0626 18.608C84.4146 18.096 84.8413 17.6907 85.3426 17.392C85.844 17.0933 86.3826 16.944 86.9586 16.944V20.288H86.0786C85.396 20.288 84.8893 20.4213 84.5586 20.688C84.228 20.9547 84.0626 21.4187 84.0626 22.08V26H80.9266V17.024H84.0626V18.608ZM94.0189 26L91.5389 22.32V26H88.4029V14.16H91.5389V20.544L94.0189 17.024H97.7789L94.2429 21.536L97.8429 26H94.0189ZM103.258 26.112C102.362 26.112 101.557 25.9253 100.842 25.552C100.138 25.1787 99.5836 24.6453 99.1782 23.952C98.7729 23.2587 98.5702 22.4427 98.5702 21.504C98.5702 20.576 98.7729 19.7653 99.1782 19.072C99.5942 18.3787 100.154 17.8453 100.858 17.472C101.573 17.0987 102.378 16.912 103.274 16.912C104.17 16.912 104.97 17.0987 105.674 17.472C106.389 17.8453 106.949 18.3787 107.354 19.072C107.77 19.7653 107.978 20.576 107.978 21.504C107.978 22.432 107.77 23.248 107.354 23.952C106.949 24.6453 106.389 25.1787 105.674 25.552C104.96 25.9253 104.154 26.112 103.258 26.112ZM103.258 23.392C103.696 23.392 104.058 23.232 104.346 22.912C104.645 22.5813 104.794 22.112 104.794 21.504C104.794 20.896 104.645 20.432 104.346 20.112C104.058 19.792 103.701 19.632 103.274 19.632C102.848 19.632 102.49 19.792 102.202 20.112C101.914 20.432 101.77 20.896 101.77 21.504C101.77 22.1227 101.909 22.592 102.186 22.912C102.464 23.232 102.821 23.392 103.258 23.392ZM118.758 17.024V26H115.606V24.72C115.339 25.1253 114.971 25.456 114.502 25.712C114.033 25.9573 113.494 26.08 112.886 26.08C111.841 26.08 111.014 25.7387 110.406 25.056C109.809 24.3627 109.51 23.424 109.51 22.24V17.024H112.63V21.84C112.63 22.352 112.763 22.7573 113.03 23.056C113.307 23.344 113.67 23.488 114.118 23.488C114.577 23.488 114.939 23.344 115.206 23.056C115.473 22.7573 115.606 22.352 115.606 21.84V17.024H118.758ZM126.159 23.328V26H124.799C122.506 26 121.359 24.864 121.359 22.592V19.632H120.255V17.024H121.359V14.848H124.511V17.024H126.143V19.632H124.511V22.64C124.511 22.8853 124.564 23.0613 124.671 23.168C124.788 23.2747 124.98 23.328 125.247 23.328H126.159ZM130.916 20.336C130.916 19.2267 131.145 18.24 131.604 17.376C132.073 16.5013 132.734 15.824 133.588 15.344C134.441 14.8533 135.422 14.608 136.532 14.608C137.94 14.608 139.124 14.9867 140.084 15.744C141.044 16.4907 141.662 17.5093 141.94 18.8H138.564C138.361 18.3733 138.078 18.048 137.716 17.824C137.364 17.6 136.953 17.488 136.484 17.488C135.758 17.488 135.177 17.7493 134.74 18.272C134.313 18.784 134.1 19.472 134.1 20.336C134.1 21.2107 134.313 21.9093 134.74 22.432C135.177 22.944 135.758 23.2 136.484 23.2C136.953 23.2 137.364 23.088 137.716 22.864C138.078 22.64 138.361 22.3147 138.564 21.888H141.94C141.662 23.1787 141.044 24.2027 140.084 24.96C139.124 25.7067 137.94 26.08 136.532 26.08C135.422 26.08 134.441 25.84 133.588 25.36C132.734 24.8693 132.073 24.192 131.604 23.328C131.145 22.4533 130.916 21.456 130.916 20.336ZM146.881 18.608C147.233 18.096 147.659 17.6907 148.161 17.392C148.662 17.0933 149.201 16.944 149.777 16.944V20.288H148.897C148.214 20.288 147.707 20.4213 147.377 20.688C147.046 20.9547 146.881 21.4187 146.881 22.08V26H143.745V17.024H146.881V18.608ZM159.797 21.408C159.797 21.6533 159.781 21.8987 159.749 22.144H153.813C153.845 22.6347 153.978 23.0027 154.213 23.248C154.458 23.4827 154.768 23.6 155.141 23.6C155.664 23.6 156.037 23.3653 156.261 22.896H159.605C159.466 23.5147 159.194 24.0693 158.789 24.56C158.394 25.04 157.893 25.4187 157.285 25.696C156.677 25.9733 156.005 26.112 155.269 26.112C154.384 26.112 153.594 25.9253 152.901 25.552C152.218 25.1787 151.68 24.6453 151.285 23.952C150.901 23.2587 150.709 22.4427 150.709 21.504C150.709 20.5653 150.901 19.7547 151.285 19.072C151.669 18.3787 152.202 17.8453 152.885 17.472C153.578 17.0987 154.373 16.912 155.269 16.912C156.154 16.912 156.938 17.0933 157.621 17.456C158.304 17.8187 158.837 18.3413 159.221 19.024C159.605 19.696 159.797 20.4907 159.797 21.408ZM156.597 20.624C156.597 20.24 156.469 19.9413 156.213 19.728C155.957 19.504 155.637 19.392 155.253 19.392C154.869 19.392 154.554 19.4987 154.309 19.712C154.064 19.9147 153.904 20.2187 153.829 20.624H156.597ZM160.888 21.504C160.888 20.576 161.054 19.7653 161.384 19.072C161.726 18.3787 162.184 17.8453 162.76 17.472C163.347 17.0987 163.998 16.912 164.712 16.912C165.331 16.912 165.864 17.0347 166.312 17.28C166.76 17.5253 167.107 17.856 167.352 18.272V17.024H170.488V26H167.352V24.752C167.107 25.168 166.755 25.4987 166.296 25.744C165.848 25.9893 165.32 26.112 164.712 26.112C163.998 26.112 163.347 25.9253 162.76 25.552C162.184 25.1787 161.726 24.6453 161.384 23.952C161.054 23.248 160.888 22.432 160.888 21.504ZM167.352 21.504C167.352 20.928 167.192 20.4747 166.872 20.144C166.563 19.8133 166.179 19.648 165.72 19.648C165.251 19.648 164.862 19.8133 164.552 20.144C164.243 20.464 164.088 20.9173 164.088 21.504C164.088 22.08 164.243 22.5387 164.552 22.88C164.862 23.2107 165.251 23.376 165.72 23.376C166.179 23.376 166.563 23.2107 166.872 22.88C167.192 22.5493 167.352 22.0907 167.352 21.504ZM177.891 23.328V26H176.531C174.238 26 173.091 24.864 173.091 22.592V19.632H171.987V17.024H173.091V14.848H176.243V17.024H177.875V19.632H176.243V22.64C176.243 22.8853 176.297 23.0613 176.403 23.168C176.521 23.2747 176.713 23.328 176.979 23.328H177.891ZM183.826 26.112C182.93 26.112 182.124 25.9253 181.41 25.552C180.706 25.1787 180.151 24.6453 179.746 23.952C179.34 23.2587 179.138 22.4427 179.138 21.504C179.138 20.576 179.34 19.7653 179.746 19.072C180.162 18.3787 180.722 17.8453 181.426 17.472C182.14 17.0987 182.946 16.912 183.842 16.912C184.738 16.912 185.538 17.0987 186.242 17.472C186.956 17.8453 187.516 18.3787 187.922 19.072C188.338 19.7653 188.546 20.576 188.546 21.504C188.546 22.432 188.338 23.248 187.922 23.952C187.516 24.6453 186.956 25.1787 186.242 25.552C185.527 25.9253 184.722 26.112 183.826 26.112ZM183.826 23.392C184.263 23.392 184.626 23.232 184.914 22.912C185.212 22.5813 185.362 22.112 185.362 21.504C185.362 20.896 185.212 20.432 184.914 20.112C184.626 19.792 184.268 19.632 183.842 19.632C183.415 19.632 183.058 19.792 182.77 20.112C182.482 20.432 182.338 20.896 182.338 21.504C182.338 22.1227 182.476 22.592 182.754 22.912C183.031 23.232 183.388 23.392 183.826 23.392ZM193.278 18.608C193.63 18.096 194.056 17.6907 194.558 17.392C195.059 17.0933 195.598 16.944 196.174 16.944V20.288H195.294C194.611 20.288 194.104 20.4213 193.774 20.688C193.443 20.9547 193.278 21.4187 193.278 22.08V26H190.142V17.024H193.278V18.608Z" fill="#0F0A19"/>
<rect width="40" height="40" rx="8" fill="#3D2278"/>
<path d="M15.0742 19.5173L15.88 14.6596L21.2239 14.0547C21.9753 14.3735 22.3511 14.533 22.3511 14.533C23.903 18.0388 24.6789 19.7917 24.6789 19.7917L28.9995 17.6091" stroke="white" stroke-width="2.27753" stroke-linecap="round" stroke-linejoin="round"/>
<path d="M12 32L16.3702 27.4294L18.3776 21.2197L20.3544 21.615L25.2417 25.6217L19.5641 29.2604" stroke="white" stroke-width="2.58811" stroke-linecap="round" stroke-linejoin="round"/>
<path d="M21.4653 14.4648L19.2852 21.7392" stroke="white" stroke-width="4.65859"/>
<path d="M22.8951 12.3594C24.1574 12.3594 25.1807 11.3835 25.1807 10.1797C25.1807 8.97588 24.1574 8 22.8951 8C21.6327 8 20.6094 8.97588 20.6094 10.1797C20.6094 11.3835 21.6327 12.3594 22.8951 12.3594Z" fill="white"/>
</svg>
