<svg width="234" height="64" viewBox="0 0 234 64" fill="none" xmlns="http://www.w3.org/2000/svg">
<path d="M83.784 26.72L81.016 38H77.16L75.608 31.088L74.024 38H70.168L67.432 26.72H70.824L72.136 34.432L73.912 26.72H77.352L79.08 34.368L80.392 26.72H83.784ZM90.8428 38.112C89.7867 38.112 88.8161 37.8667 87.9307 37.376C87.0454 36.8747 86.3414 36.1867 85.8187 35.312C85.3067 34.4267 85.0507 33.4293 85.0507 32.32C85.0507 31.2107 85.3067 30.2187 85.8187 29.344C86.3414 28.4587 87.0454 27.7707 87.9307 27.28C88.8161 26.7893 89.7867 26.544 90.8428 26.544C91.9094 26.544 92.8801 26.7893 93.7548 27.28C94.6401 27.7707 95.3388 28.4587 95.8507 29.344C96.3628 30.2187 96.6188 31.2107 96.6188 32.32C96.6188 33.4293 96.3628 34.4267 95.8507 35.312C95.3388 36.1867 94.6401 36.8747 93.7548 37.376C92.8694 37.8667 91.8988 38.112 90.8428 38.112ZM90.8428 35.2C91.6427 35.2 92.2721 34.9387 92.7308 34.416C93.2001 33.8933 93.4348 33.1947 93.4348 32.32C93.4348 31.424 93.2001 30.72 92.7308 30.208C92.2721 29.6853 91.6427 29.424 90.8428 29.424C90.0321 29.424 89.3974 29.6853 88.9387 30.208C88.4801 30.72 88.2507 31.424 88.2507 32.32C88.2507 33.2053 88.4801 33.9093 88.9387 34.432C89.3974 34.944 90.0321 35.2 90.8428 35.2ZM104.06 38L101.82 33.84H101.484V38H98.3485V26.72H103.292C104.199 26.72 104.967 26.88 105.596 27.2C106.226 27.5093 106.7 27.9413 107.021 28.496C107.34 29.04 107.5 29.6533 107.5 30.336C107.5 31.104 107.287 31.7813 106.86 32.368C106.444 32.944 105.831 33.3547 105.02 33.6L107.564 38H104.06ZM101.484 31.696H103.036C103.463 31.696 103.783 31.5947 103.996 31.392C104.21 31.1893 104.316 30.896 104.316 30.512C104.316 30.1493 104.204 29.8667 103.98 29.664C103.767 29.4507 103.452 29.344 103.036 29.344H101.484V31.696ZM115.919 38L112.383 33.056V38H109.247V26.72H112.383V31.584L115.887 26.72H119.503L115.359 32.192L119.711 38H115.919ZM126.584 38.112C125.528 38.112 124.557 37.8667 123.672 37.376C122.787 36.8747 122.083 36.1867 121.56 35.312C121.048 34.4267 120.792 33.4293 120.792 32.32C120.792 31.2107 121.048 30.2187 121.56 29.344C122.083 28.4587 122.787 27.7707 123.672 27.28C124.557 26.7893 125.528 26.544 126.584 26.544C127.651 26.544 128.621 26.7893 129.496 27.28C130.381 27.7707 131.08 28.4587 131.592 29.344C132.104 30.2187 132.36 31.2107 132.36 32.32C132.36 33.4293 132.104 34.4267 131.592 35.312C131.08 36.1867 130.381 36.8747 129.496 37.376C128.611 37.8667 127.64 38.112 126.584 38.112ZM126.584 35.2C127.384 35.2 128.013 34.9387 128.472 34.416C128.941 33.8933 129.176 33.1947 129.176 32.32C129.176 31.424 128.941 30.72 128.472 30.208C128.013 29.6853 127.384 29.424 126.584 29.424C125.773 29.424 125.139 29.6853 124.68 30.208C124.221 30.72 123.992 31.424 123.992 32.32C123.992 33.2053 124.221 33.9093 124.68 34.432C125.139 34.944 125.773 35.2 126.584 35.2ZM137.162 26.72V33.264C137.162 33.872 137.3 34.3413 137.578 34.672C137.866 35.0027 138.298 35.168 138.874 35.168C139.45 35.168 139.882 35.0027 140.17 34.672C140.468 34.3307 140.618 33.8613 140.618 33.264V26.72H143.754V33.264C143.754 34.2987 143.535 35.184 143.098 35.92C142.66 36.6453 142.063 37.1947 141.306 37.568C140.559 37.9307 139.727 38.112 138.81 38.112C137.892 38.112 137.071 37.9307 136.346 37.568C135.631 37.1947 135.066 36.6453 134.65 35.92C134.244 35.1947 134.042 34.3093 134.042 33.264V26.72H137.162ZM154.296 26.72V29.216H151.288V38H148.152V29.216H145.176V26.72H154.296Z" fill="#3D2278"/>
<path d="M158.855 32.416C158.855 31.328 159.106 30.352 159.607 29.488C160.119 28.624 160.807 27.952 161.671 27.472C162.546 26.9813 163.5 26.736 164.535 26.736C165.719 26.736 166.77 27.0293 167.687 27.616C168.615 28.192 169.287 29.0133 169.703 30.08H167.511C167.223 29.4933 166.823 29.056 166.311 28.768C165.799 28.48 165.207 28.336 164.535 28.336C163.799 28.336 163.143 28.5013 162.567 28.832C161.991 29.1627 161.538 29.6373 161.207 30.256C160.887 30.8747 160.727 31.5947 160.727 32.416C160.727 33.2373 160.887 33.9573 161.207 34.576C161.538 35.1947 161.991 35.6747 162.567 36.016C163.143 36.3467 163.799 36.512 164.535 36.512C165.207 36.512 165.799 36.368 166.311 36.08C166.823 35.792 167.223 35.3547 167.511 34.768H169.703C169.287 35.8347 168.615 36.656 167.687 37.232C166.77 37.808 165.719 38.096 164.535 38.096C163.49 38.096 162.535 37.856 161.671 37.376C160.807 36.8853 160.119 36.208 159.607 35.344C159.106 34.48 158.855 33.504 158.855 32.416ZM177.934 38L175.374 33.552H173.982V38H172.158V26.88H175.998C176.851 26.88 177.571 27.0293 178.158 27.328C178.755 27.6267 179.198 28.0267 179.486 28.528C179.785 29.0293 179.934 29.5893 179.934 30.208C179.934 30.9333 179.721 31.5947 179.294 32.192C178.878 32.7787 178.233 33.1787 177.358 33.392L180.11 38H177.934ZM173.982 32.096H175.998C176.681 32.096 177.193 31.9253 177.534 31.584C177.886 31.2427 178.062 30.784 178.062 30.208C178.062 29.632 177.891 29.184 177.55 28.864C177.209 28.5333 176.691 28.368 175.998 28.368H173.982V32.096ZM184.411 28.352V31.616H188.251V33.104H184.411V36.512H188.731V38H182.587V26.864H188.731V28.352H184.411ZM198.002 35.728H193.346L192.546 38H190.642L194.626 26.864H196.738L200.722 38H198.802L198.002 35.728ZM197.49 34.24L195.682 29.072L193.858 34.24H197.49ZM209.958 26.88V28.368H206.998V38H205.174V28.368H202.198V26.88H209.958ZM217.198 38.112C216.163 38.112 215.208 37.872 214.334 37.392C213.47 36.9013 212.782 36.224 212.27 35.36C211.768 34.4853 211.518 33.504 211.518 32.416C211.518 31.328 211.768 30.352 212.27 29.488C212.782 28.624 213.47 27.952 214.334 27.472C215.208 26.9813 216.163 26.736 217.198 26.736C218.243 26.736 219.198 26.9813 220.062 27.472C220.936 27.952 221.624 28.624 222.126 29.488C222.627 30.352 222.878 31.328 222.878 32.416C222.878 33.504 222.627 34.4853 222.126 35.36C221.624 36.224 220.936 36.9013 220.062 37.392C219.198 37.872 218.243 38.112 217.198 38.112ZM217.198 36.528C217.934 36.528 218.59 36.3627 219.166 36.032C219.742 35.6907 220.19 35.2107 220.51 34.592C220.84 33.9627 221.006 33.2373 221.006 32.416C221.006 31.5947 220.84 30.8747 220.51 30.256C220.19 29.6373 219.742 29.1627 219.166 28.832C218.59 28.5013 217.934 28.336 217.198 28.336C216.462 28.336 215.806 28.5013 215.23 28.832C214.654 29.1627 214.2 29.6373 213.87 30.256C213.55 30.8747 213.39 31.5947 213.39 32.416C213.39 33.2373 213.55 33.9627 213.87 34.592C214.2 35.2107 214.654 35.6907 215.23 36.032C215.806 36.3627 216.462 36.528 217.198 36.528ZM230.768 38L228.208 33.552H226.816V38H224.992V26.88H228.832C229.686 26.88 230.406 27.0293 230.992 27.328C231.59 27.6267 232.032 28.0267 232.32 28.528C232.619 29.0293 232.768 29.5893 232.768 30.208C232.768 30.9333 232.555 31.5947 232.128 32.192C231.712 32.7787 231.067 33.1787 230.192 33.392L232.944 38H230.768ZM226.816 32.096H228.832C229.515 32.096 230.027 31.9253 230.368 31.584C230.72 31.2427 230.896 30.784 230.896 30.208C230.896 29.632 230.726 29.184 230.384 28.864C230.043 28.5333 229.526 28.368 228.832 28.368H226.816V32.096Z" fill="#0F0A19" fill-opacity="0.5"/>
<g filter="url(#filter0_bd_1099_463)">
<rect x="12" y="12" width="40" height="40" rx="10" fill="url(#paint0_linear_1099_463)"/>
</g>
<path fill-rule="evenodd" clip-rule="evenodd" d="M27.0742 31.5173L27.88 26.6596L33.2239 26.0547C33.9753 26.3735 34.3511 26.533 34.3511 26.533C35.903 30.0388 36.6789 31.7917 36.6789 31.7917L40.9995 29.6091" fill="#3D2278"/>
<path d="M27.0742 31.5173L27.88 26.6596L33.2239 26.0547C33.9753 26.3735 34.3511 26.533 34.3511 26.533C35.903 30.0388 36.6789 31.7917 36.6789 31.7917L40.9995 29.6091" stroke="#3D2278" stroke-width="2.27753" stroke-linecap="round" stroke-linejoin="round"/>
<path fill-rule="evenodd" clip-rule="evenodd" d="M24 44.0001L28.3702 39.4295L30.3776 33.2198L32.3544 33.615L37.2417 37.6218L31.5641 41.2604" fill="white"/>
<path d="M24 44.0001L28.3702 39.4295L30.3776 33.2198L32.3544 33.615L37.2417 37.6218L31.5641 41.2604" stroke="#3D2278" stroke-width="2.58811" stroke-linecap="round" stroke-linejoin="round"/>
<path fill-rule="evenodd" clip-rule="evenodd" d="M33.4653 26.4648L31.2852 33.7392L33.4653 26.4648Z" fill="#3D2278"/>
<path d="M33.4653 26.4648L31.2852 33.7392" stroke="#3D2278" stroke-width="4.65859"/>
<path d="M36.6631 22.1797C36.6631 23.0747 35.895 23.8418 34.8951 23.8418C33.8952 23.8418 33.127 23.0747 33.127 22.1797C33.127 21.2846 33.8952 20.5176 34.8951 20.5176C35.895 20.5176 36.6631 21.2846 36.6631 22.1797Z" fill="#3D2278" stroke="#3D2278" stroke-width="1.03524"/>
<defs>
<filter id="filter0_bd_1099_463" x="-1" y="-1" width="66" height="66" filterUnits="userSpaceOnUse" color-interpolation-filters="sRGB">
<feFlood flood-opacity="0" result="BackgroundImageFix"/>
<feGaussianBlur in="BackgroundImageFix" stdDeviation="6.5"/>
<feComposite in2="SourceAlpha" operator="in" result="effect1_backgroundBlur_1099_463"/>
<feColorMatrix in="SourceAlpha" type="matrix" values="0 0 0 0 0 0 0 0 0 0 0 0 0 0 0 0 0 0 127 0" result="hardAlpha"/>
<feOffset/>
<feGaussianBlur stdDeviation="6"/>
<feComposite in2="hardAlpha" operator="out"/>
<feColorMatrix type="matrix" values="0 0 0 0 0.0588235 0 0 0 0 0.0392157 0 0 0 0 0.0980392 0 0 0 0.1 0"/>
<feBlend mode="normal" in2="effect1_backgroundBlur_1099_463" result="effect2_dropShadow_1099_463"/>
<feBlend mode="normal" in="SourceGraphic" in2="effect2_dropShadow_1099_463" result="shape"/>
</filter>
<linearGradient id="paint0_linear_1099_463" x1="18.4547" y1="17.086" x2="57.3959" y2="32.511" gradientUnits="userSpaceOnUse">
<stop stop-color="white"/>
<stop offset="0.5" stop-color="#F9F9F9"/>
<stop offset="1" stop-color="#FAFAFA"/>
</linearGradient>
</defs>
</svg>
