<svg width="186" height="40" viewBox="0 0 186 40" fill="none" xmlns="http://www.w3.org/2000/svg">
<path d="M66.032 14.832L62.912 26H60.272L58.176 18.048L55.984 26L53.36 26.016L50.352 14.832H52.752L54.72 23.504L56.992 14.832H59.488L61.632 23.456L63.616 14.832H66.032ZM71.4306 26.144C70.5773 26.144 69.8093 25.9573 69.1266 25.584C68.444 25.2 67.9053 24.6613 67.5106 23.968C67.1266 23.2747 66.9346 22.4747 66.9346 21.568C66.9346 20.6613 67.132 19.8613 67.5266 19.168C67.932 18.4747 68.4813 17.9413 69.1746 17.568C69.868 17.184 70.6413 16.992 71.4946 16.992C72.348 16.992 73.1213 17.184 73.8146 17.568C74.508 17.9413 75.052 18.4747 75.4466 19.168C75.852 19.8613 76.0546 20.6613 76.0546 21.568C76.0546 22.4747 75.8466 23.2747 75.4306 23.968C75.0253 24.6613 74.4706 25.2 73.7666 25.584C73.0733 25.9573 72.2946 26.144 71.4306 26.144ZM71.4306 24.192C71.836 24.192 72.2146 24.096 72.5666 23.904C72.9293 23.7013 73.2173 23.4027 73.4306 23.008C73.644 22.6133 73.7506 22.1333 73.7506 21.568C73.7506 20.7253 73.5266 20.08 73.0786 19.632C72.6413 19.1733 72.1026 18.944 71.4626 18.944C70.8226 18.944 70.284 19.1733 69.8466 19.632C69.42 20.08 69.2066 20.7253 69.2066 21.568C69.2066 22.4107 69.4146 23.0613 69.8306 23.52C70.2573 23.968 70.7906 24.192 71.4306 24.192ZM79.9378 18.512C80.2258 18.0427 80.5991 17.6747 81.0578 17.408C81.5271 17.1413 82.0604 17.008 82.6578 17.008V19.36H82.0658C81.3618 19.36 80.8284 19.5253 80.4658 19.856C80.1138 20.1867 79.9378 20.7627 79.9378 21.584V26H77.6978V17.136H79.9378V18.512ZM89.4145 26L86.4065 22.224V26H84.1665V14.16H86.4065V20.896L89.3825 17.136H92.2945L88.3905 21.584L92.3265 26H89.4145ZM97.4463 26.144C96.5929 26.144 95.8249 25.9573 95.1423 25.584C94.4596 25.2 93.9209 24.6613 93.5263 23.968C93.1423 23.2747 92.9503 22.4747 92.9503 21.568C92.9503 20.6613 93.1476 19.8613 93.5423 19.168C93.9476 18.4747 94.4969 17.9413 95.1903 17.568C95.8836 17.184 96.6569 16.992 97.5103 16.992C98.3636 16.992 99.1369 17.184 99.8303 17.568C100.524 17.9413 101.068 18.4747 101.462 19.168C101.868 19.8613 102.07 20.6613 102.07 21.568C102.07 22.4747 101.862 23.2747 101.446 23.968C101.041 24.6613 100.486 25.2 99.7823 25.584C99.0889 25.9573 98.3103 26.144 97.4463 26.144ZM97.4463 24.192C97.8516 24.192 98.2303 24.096 98.5823 23.904C98.9449 23.7013 99.2329 23.4027 99.4463 23.008C99.6596 22.6133 99.7663 22.1333 99.7663 21.568C99.7663 20.7253 99.5423 20.08 99.0943 19.632C98.6569 19.1733 98.1183 18.944 97.4783 18.944C96.8383 18.944 96.2996 19.1733 95.8623 19.632C95.4356 20.08 95.2223 20.7253 95.2223 21.568C95.2223 22.4107 95.4303 23.0613 95.8463 23.52C96.2729 23.968 96.8063 24.192 97.4463 24.192ZM112.081 17.136V26H109.825V24.88C109.537 25.264 109.159 25.568 108.689 25.792C108.231 26.0053 107.729 26.112 107.185 26.112C106.492 26.112 105.879 25.968 105.345 25.68C104.812 25.3813 104.391 24.9493 104.081 24.384C103.783 23.808 103.633 23.1253 103.633 22.336V17.136H105.873V22.016C105.873 22.72 106.049 23.264 106.401 23.648C106.753 24.0213 107.233 24.208 107.841 24.208C108.46 24.208 108.945 24.0213 109.297 23.648C109.649 23.264 109.825 22.72 109.825 22.016V17.136H112.081ZM116.9 18.976V23.264C116.9 23.5627 116.969 23.7813 117.108 23.92C117.257 24.048 117.502 24.112 117.844 24.112H118.884V26H117.476C115.588 26 114.644 25.0827 114.644 23.248V18.976H113.588V17.136H114.644V14.944H116.9V17.136H118.884V18.976H116.9ZM123.763 20.4C123.763 19.3013 124.008 18.32 124.499 17.456C125 16.5813 125.678 15.904 126.531 15.424C127.395 14.9333 128.36 14.688 129.427 14.688C130.675 14.688 131.768 15.008 132.707 15.648C133.646 16.288 134.302 17.1733 134.675 18.304H132.099C131.843 17.7707 131.48 17.3707 131.011 17.104C130.552 16.8373 130.019 16.704 129.411 16.704C128.76 16.704 128.179 16.8587 127.667 17.168C127.166 17.4667 126.771 17.8933 126.483 18.448C126.206 19.0027 126.067 19.6533 126.067 20.4C126.067 21.136 126.206 21.7867 126.483 22.352C126.771 22.9067 127.166 23.3387 127.667 23.648C128.179 23.9467 128.76 24.096 129.411 24.096C130.019 24.096 130.552 23.9627 131.011 23.696C131.48 23.4187 131.843 23.0133 132.099 22.48H134.675C134.302 23.6213 133.646 24.512 132.707 25.152C131.779 25.7813 130.686 26.096 129.427 26.096C128.36 26.096 127.395 25.856 126.531 25.376C125.678 24.8853 125 24.208 124.499 23.344C124.008 22.48 123.763 21.4987 123.763 20.4ZM138.828 18.512C139.116 18.0427 139.49 17.6747 139.948 17.408C140.418 17.1413 140.951 17.008 141.548 17.008V19.36H140.956C140.252 19.36 139.719 19.5253 139.356 19.856C139.004 20.1867 138.828 20.7627 138.828 21.584V26H136.588V17.136H138.828V18.512ZM151.297 21.376C151.297 21.696 151.276 21.984 151.233 22.24H144.753C144.806 22.88 145.03 23.3813 145.425 23.744C145.82 24.1067 146.305 24.288 146.881 24.288C147.713 24.288 148.305 23.9307 148.657 23.216H151.073C150.817 24.0693 150.326 24.7733 149.601 25.328C148.876 25.872 147.985 26.144 146.929 26.144C146.076 26.144 145.308 25.9573 144.625 25.584C143.953 25.2 143.425 24.6613 143.041 23.968C142.668 23.2747 142.481 22.4747 142.481 21.568C142.481 20.6507 142.668 19.8453 143.041 19.152C143.414 18.4587 143.937 17.9253 144.609 17.552C145.281 17.1787 146.054 16.992 146.929 16.992C147.772 16.992 148.524 17.1733 149.185 17.536C149.857 17.8987 150.374 18.416 150.737 19.088C151.11 19.7493 151.297 20.512 151.297 21.376ZM148.977 20.736C148.966 20.16 148.758 19.7013 148.353 19.36C147.948 19.008 147.452 18.832 146.865 18.832C146.31 18.832 145.841 19.0027 145.457 19.344C145.084 19.6747 144.854 20.1387 144.769 20.736H148.977ZM152.356 21.536C152.356 20.64 152.532 19.8453 152.884 19.152C153.247 18.4587 153.732 17.9253 154.34 17.552C154.959 17.1787 155.647 16.992 156.404 16.992C157.065 16.992 157.641 17.1253 158.132 17.392C158.633 17.6587 159.033 17.9947 159.332 18.4V17.136H161.588V26H159.332V24.704C159.044 25.12 158.644 25.4667 158.132 25.744C157.631 26.0107 157.049 26.144 156.388 26.144C155.641 26.144 154.959 25.952 154.34 25.568C153.732 25.184 153.247 24.6453 152.884 23.952C152.532 23.248 152.356 22.4427 152.356 21.536ZM159.332 21.568C159.332 21.024 159.225 20.56 159.012 20.176C158.799 19.7813 158.511 19.4827 158.148 19.28C157.785 19.0667 157.396 18.96 156.98 18.96C156.564 18.96 156.18 19.0613 155.828 19.264C155.476 19.4667 155.188 19.7653 154.964 20.16C154.751 20.544 154.644 21.0027 154.644 21.536C154.644 22.0693 154.751 22.5387 154.964 22.944C155.188 23.3387 155.476 23.6427 155.828 23.856C156.191 24.0693 156.575 24.176 156.98 24.176C157.396 24.176 157.785 24.0747 158.148 23.872C158.511 23.6587 158.799 23.36 159.012 22.976C159.225 22.5813 159.332 22.112 159.332 21.568ZM166.384 18.976V23.264C166.384 23.5627 166.453 23.7813 166.592 23.92C166.741 24.048 166.987 24.112 167.328 24.112H168.368V26H166.96C165.072 26 164.128 25.0827 164.128 23.248V18.976H163.072V17.136H164.128V14.944H166.384V17.136H168.368V18.976H166.384ZM173.915 26.144C173.062 26.144 172.294 25.9573 171.611 25.584C170.928 25.2 170.39 24.6613 169.995 23.968C169.611 23.2747 169.419 22.4747 169.419 21.568C169.419 20.6613 169.616 19.8613 170.011 19.168C170.416 18.4747 170.966 17.9413 171.659 17.568C172.352 17.184 173.126 16.992 173.979 16.992C174.832 16.992 175.606 17.184 176.299 17.568C176.992 17.9413 177.536 18.4747 177.931 19.168C178.336 19.8613 178.539 20.6613 178.539 21.568C178.539 22.4747 178.331 23.2747 177.915 23.968C177.51 24.6613 176.955 25.2 176.251 25.584C175.558 25.9573 174.779 26.144 173.915 26.144ZM173.915 24.192C174.32 24.192 174.699 24.096 175.051 23.904C175.414 23.7013 175.702 23.4027 175.915 23.008C176.128 22.6133 176.235 22.1333 176.235 21.568C176.235 20.7253 176.011 20.08 175.563 19.632C175.126 19.1733 174.587 18.944 173.947 18.944C173.307 18.944 172.768 19.1733 172.331 19.632C171.904 20.08 171.691 20.7253 171.691 21.568C171.691 22.4107 171.899 23.0613 172.315 23.52C172.742 23.968 173.275 24.192 173.915 24.192ZM182.422 18.512C182.71 18.0427 183.083 17.6747 183.542 17.408C184.011 17.1413 184.545 17.008 185.142 17.008V19.36H184.55C183.846 19.36 183.313 19.5253 182.95 19.856C182.598 20.1867 182.422 20.7627 182.422 21.584V26H180.182V17.136H182.422V18.512Z" fill="white"/>
<rect width="40" height="40" rx="9" fill="#3D2278"/>
<path d="M15.0752 19.5168L15.881 14.6591L21.2249 14.0542C21.9763 14.3731 22.3521 14.5325 22.3521 14.5325C23.904 18.0383 24.6799 19.7912 24.6799 19.7912L29.0005 17.6086" stroke="white" stroke-width="2.27753" stroke-linecap="round" stroke-linejoin="round"/>
<path d="M12 32L16.3702 27.4294L18.3776 21.2197L20.3544 21.615L25.2417 25.6217L19.5641 29.2604" stroke="white" stroke-width="2.58811" stroke-linecap="round" stroke-linejoin="round"/>
<path d="M21.4663 14.4651L19.2861 21.7395" stroke="white" stroke-width="4.65859"/>
<path d="M22.896 12.3594C24.1584 12.3594 25.1817 11.3835 25.1817 10.1797C25.1817 8.97588 24.1584 8 22.896 8C21.6337 8 20.6104 8.97588 20.6104 10.1797C20.6104 11.3835 21.6337 12.3594 22.896 12.3594Z" fill="white"/>
</svg>
