<svg width="260" height="260" viewBox="0 0 260 260" fill="none" xmlns="http://www.w3.org/2000/svg">
<path d="M103.983 0H83.1836V10.4H103.983V0Z" fill="black"/>
<path d="M124.812 0H135.212V10.4H156.012V20.8H124.812V0Z" fill="black"/>
<path d="M166.381 0H176.78V114.4H166.381V93.5999H155.981V104H145.577V93.5999H135.182V83.1999H124.782V51.9999H114.383V31.2H83.1836V20.8H103.983V10.4H114.383V20.8H124.782V31.2H155.981V41.5999H135.182V72.7999H145.577V62.3999H155.981V83.1999H166.381V51.9999H155.981V41.5999H166.381V0Z" fill="black"/>
<path d="M0 0V72.7999H72.7975V0H0ZM62.3979 62.3999H10.3996V10.4H62.3979V62.3999Z" fill="black"/>
<path d="M187.18 0V72.7999H259.977V0H187.18ZM249.578 62.3999H197.579V10.4H249.578V62.3999Z" fill="black"/>
<path d="M52.0123 20.8006H20.8125V52.0005H52.0123V20.8006Z" fill="black"/>
<path d="M239.196 20.8006H207.996V52.0005H239.196V20.8006Z" fill="black"/>
<path d="M83.1836 41.5997H103.983V62.3997H93.5835V51.9997H83.1836V41.5997Z" fill="black"/>
<path d="M83.1836 62.4004H93.5832V72.8004H103.983V62.4004H114.383V83.2004H124.782V93.6003H135.182V104H124.782V114.4H114.383V93.6003H103.983V83.2004H83.1836V62.4004Z" fill="black"/>
<path d="M72.7959 83.199H51.9961V93.599H72.7959V83.199Z" fill="black"/>
<path d="M218.396 83.199H207.996V93.599H218.396V83.199Z" fill="black"/>
<path d="M228.793 83.1992H239.193V103.999H259.993V135.199H239.193V114.399H228.793V83.1992Z" fill="black"/>
<path d="M260.001 83.1992H249.602V93.5992H260.001V83.1992Z" fill="black"/>
<path d="M31.167 93.5995H10.3672V103.999H31.167V93.5995Z" fill="black"/>
<path d="M52.0288 93.5996H41.6289V104H52.0288V93.5996Z" fill="black"/>
<path d="M10.3999 104H0V114.4H10.3999V104Z" fill="black"/>
<path d="M72.7632 104H62.3633V114.4H72.7632V104Z" fill="black"/>
<path d="M20.7671 114.4H41.567V135.2H31.167V145.6H20.7671V135.2H10.3672V124.8H20.7671V114.4Z" fill="black"/>
<path d="M62.396 114.4H51.9961V124.8H62.396V114.4Z" fill="black"/>
<path d="M166.396 114.4H155.996V124.8H166.396V114.4Z" fill="black"/>
<path d="M72.7632 124.798H62.3633V135.198H72.7632V124.798Z" fill="black"/>
<path d="M10.3999 135.199H0V176.799H10.3999V135.199Z" fill="black"/>
<path d="M52.0288 135.199H41.6289V145.603H52.0288V135.199Z" fill="black"/>
<path d="M41.5913 145.599H31.1914V155.999H41.5913V145.599Z" fill="black"/>
<path d="M72.7632 145.599H62.3633V155.999H72.7632V145.599Z" fill="black"/>
<path d="M83.1836 145.599H93.5835V155.999H103.983V176.799H93.5835V187.199H83.1836V145.599Z" fill="black"/>
<path d="M218.401 145.599H197.605V155.999H218.401V145.599Z" fill="black"/>
<path d="M259.976 145.599H239.176V155.999H259.976V145.599Z" fill="black"/>
<path d="M52.0288 156H41.6289V166.4H52.0288V156Z" fill="black"/>
<path d="M31.2124 166.4H20.8125V176.804H31.2124V166.4Z" fill="black"/>
<path d="M72.7959 166.401H51.9961V176.805H72.7959V166.401Z" fill="black"/>
<path d="M114.392 176.799H103.992V187.199H114.392V176.799Z" fill="black"/>
<path d="M259.98 176.799V166.399H239.181V155.999H218.382V166.399H176.783V155.999H187.183V145.599H197.582V135.199H218.382V145.599H228.781V114.399H218.382V103.999H207.982V114.399H197.582V103.999H207.982V93.599H197.582V83.199H187.183V114.399H176.783V145.599H155.984V124.799H145.581V145.599H135.181V114.399H124.782V135.199H114.382V114.399H83.1836V124.799H93.5831V145.599H103.987V155.999H114.386V145.599H124.786V155.999H114.386V176.799H124.786V187.199H135.185V166.399H145.585V187.199H155.984V176.799H166.384V187.199H155.984V197.599H145.581V228.799H124.786V239.199H145.581V249.599H124.786V259.999H176.783V249.599H166.384V239.199H155.984V207.999H166.384V218.399H176.783V228.799H187.183V218.399H218.382V228.799H228.781V218.399H239.181V207.999H228.781V187.199H218.382V176.799H259.98ZM166.384 166.399H155.984V155.999H166.384V166.399ZM207.982 207.999H176.783V176.799H207.982V207.999Z" fill="black"/>
<path d="M124.814 187.199H114.414V207.999H124.814V187.199Z" fill="black"/>
<path d="M197.584 187.199H187.18V197.603H197.584V187.199Z" fill="black"/>
<path d="M260.001 187.199H249.602V207.999H260.001V187.199Z" fill="black"/>
<path d="M0 187.199V259.999H72.7975V187.199H0ZM62.3979 249.599H10.3996V197.599H62.3979V249.599Z" fill="black"/>
<path d="M83.1836 197.599H103.983V218.399H114.383V228.799H103.983V239.199H93.5835V207.999H83.1836V197.599Z" fill="black"/>
<path d="M52.0123 208H20.8125V239.2H52.0123V208Z" fill="black"/>
<path d="M135.212 208H124.812V218.399H135.212V208Z" fill="black"/>
<path d="M260.001 218.4H249.602V260H260.001V218.4Z" fill="black"/>
<path d="M176.818 228.8H166.414V239.2H176.818V228.8Z" fill="black"/>
<path d="M187.18 228.8H207.979V239.2H228.778V260H218.379V249.6H197.579V260H187.18V228.8Z" fill="black"/>
<path d="M239.193 228.8H228.793V239.2H239.193V228.8Z" fill="black"/>
<path d="M124.814 239.199H114.414V249.603H124.814V239.199Z" fill="black"/>
<path d="M104.021 249.6H93.6211V260H104.021V249.6Z" fill="black"/>
</svg>
