<svg width="9" height="14" viewBox="0 0 9 14" fill="none" xmlns="http://www.w3.org/2000/svg">
<path d="M5.64774 7.00254L1.19026 2.51317C1.06752 2.38985 1 2.22498 1 2.04917C1 1.87327 1.06752 1.70849 1.19026 1.58498L1.58085 1.19181C1.70339 1.0681 1.8672 1 2.04177 1C2.21633 1 2.37995 1.0681 2.50259 1.19181L7.80993 6.53678C7.93306 6.66068 8.00048 6.82624 8 7.00224C8.00048 7.17902 7.93316 7.34439 7.80993 7.46839L2.50753 12.8082C2.38489 12.9319 2.22127 13 2.04661 13C1.87205 13 1.70843 12.9319 1.58569 12.8082L1.1952 12.415C0.941103 12.1591 0.941103 11.7425 1.1952 11.4867L5.64774 7.00254Z" fill="#3D2278" stroke="#3D2278" stroke-width="0.2"/>
</svg>
