<svg width="44" height="44" viewBox="0 0 44 44" fill="none" xmlns="http://www.w3.org/2000/svg">
<rect width="44" height="44" rx="22" fill="white" fill-opacity="0.5"/>
<rect x="0.75" y="0.75" width="42.5" height="42.5" rx="21.25" stroke="#3D2278" stroke-opacity="0.1" stroke-width="1.5"/>
<path d="M11.8021 30C11.7176 30.0004 11.6337 29.9872 11.5537 29.961C11.3864 29.9081 11.2416 29.8031 11.1417 29.6622C11.0418 29.5212 10.9924 29.3522 11.001 29.1811C11.001 29.0641 11.8261 17.7405 23.4902 16.8514V12.7805C23.4901 12.6255 23.5374 12.4739 23.6262 12.3452C23.7149 12.2165 23.8411 12.1164 23.9886 12.0578C24.136 11.9992 24.2981 11.9848 24.454 12.0163C24.61 12.0478 24.7527 12.1238 24.8641 12.2346L32.771 20.0957C32.9178 20.2415 33 20.4375 33 20.6416C33 20.8457 32.9178 21.0417 32.771 21.1875L24.8641 29.0486C24.7527 29.1594 24.61 29.2354 24.454 29.2669C24.2981 29.2984 24.136 29.284 23.9886 29.2254C23.8411 29.1668 23.7149 29.0667 23.6262 28.938C23.5374 28.8093 23.4901 28.6577 23.4902 28.5026V24.5097C15.7034 24.7983 12.511 29.5789 12.479 29.6374C12.4067 29.7485 12.3068 29.84 12.1884 29.9034C12.0701 29.9668 11.9372 30 11.8021 30ZM25.0924 14.6912V17.5806C25.0925 17.7828 25.012 17.9771 24.8678 18.1226C24.7235 18.2681 24.5269 18.3534 24.3193 18.3605C16.7729 18.6295 14.0732 23.5232 13.1039 26.67C15.1066 24.9855 18.6755 22.9266 24.2432 22.9266H24.2793C24.4917 22.9266 24.6955 23.0088 24.8457 23.155C24.996 23.3013 25.0804 23.4996 25.0804 23.7065V26.5959L31.0887 20.6455L25.0924 14.6912Z" fill="#3D2278"/>
</svg>
