<svg width="116" height="20" viewBox="0 0 116 20" fill="none" xmlns="http://www.w3.org/2000/svg">
<path d="M10 0L12.3511 6.76393L19.5106 6.90983L13.8042 11.2361L15.8779 18.0902L10 14L4.12215 18.0902L6.19577 11.2361L0.489435 6.90983L7.64886 6.76393L10 0Z" fill="#FFBC11"/>
<path d="M34 0L36.3511 6.76393L43.5106 6.90983L37.8042 11.2361L39.8779 18.0902L34 14L28.1221 18.0902L30.1958 11.2361L24.4894 6.90983L31.6489 6.76393L34 0Z" fill="#FFBC11"/>
<path d="M58 0L60.3511 6.76393L67.5106 6.90983L61.8042 11.2361L63.8779 18.0902L58 14L52.1221 18.0902L54.1958 11.2361L48.4894 6.90983L55.6489 6.76393L58 0Z" fill="#FFBC11"/>
<path d="M82 0L84.3511 6.76393L91.5106 6.90983L85.8042 11.2361L87.8779 18.0902L82 14L76.1221 18.0902L78.1958 11.2361L72.4894 6.90983L79.6489 6.76393L82 0Z" fill="#FFBC11"/>
<path d="M106 0L108.351 6.76393L115.511 6.90983L109.804 11.2361L111.878 18.0902L106 14L100.122 18.0902L102.196 11.2361L96.4894 6.90983L103.649 6.76393L106 0Z" fill="#FFBC11"/>
</svg>
