<svg width="60" height="60" viewBox="0 0 60 60" fill="none" xmlns="http://www.w3.org/2000/svg">
<g filter="url(#filter0_d_1030_1598)">
<rect x="10" y="10" width="40" height="40" rx="20" fill="white"/>
<rect x="10.75" y="10.75" width="38.5" height="38.5" rx="19.25" stroke="#0F0A19" stroke-opacity="0.1" stroke-width="1.5"/>
<path opacity="0.8" d="M38 28.7167V25.5747C36.5222 25.5747 35.3944 25.1819 34.6667 24.4186C33.9197 23.5474 33.5012 22.4441 33.4833 21.2987V21.0719L30.5 21V33.7615C30.3977 34.3183 30.1262 34.8304 29.7223 35.2288C29.3184 35.6271 28.8015 35.8924 28.2413 35.9889C27.6811 36.0855 27.1047 36.0085 26.5899 35.7685C26.075 35.5286 25.6465 35.137 25.3622 34.6469C25.0779 34.1567 24.9514 33.5915 25 33.0275C25.0485 32.4635 25.2696 31.928 25.6336 31.4931C25.9975 31.0582 26.4866 30.745 27.035 30.5957C27.5833 30.4464 28.1645 30.4683 28.7 30.6583V27.6159C28.3878 27.5649 28.0719 27.539 27.7556 27.5384C26.6172 27.5384 25.5044 27.8745 24.5579 28.5042C23.6114 29.1339 22.8737 30.029 22.4381 31.0761C22.0025 32.1233 21.8885 33.2756 22.1106 34.3872C22.3327 35.4989 22.8808 36.52 23.6858 37.3215C24.4907 38.123 25.5162 38.6688 26.6327 38.8899C27.7492 39.111 28.9064 38.9975 29.9581 38.5638C31.0098 38.13 31.9087 37.3955 32.5411 36.4531C33.1736 35.5106 33.5111 34.4026 33.5111 33.2692C33.5105 33.0344 33.4957 32.7998 33.4667 32.5667V27.5052C34.8232 28.3488 36.4015 28.7705 38 28.7167Z" fill="#0F0A19"/>
</g>
<defs>
<filter id="filter0_d_1030_1598" x="0" y="0" width="60" height="60" filterUnits="userSpaceOnUse" color-interpolation-filters="sRGB">
<feFlood flood-opacity="0" result="BackgroundImageFix"/>
<feColorMatrix in="SourceAlpha" type="matrix" values="0 0 0 0 0 0 0 0 0 0 0 0 0 0 0 0 0 0 127 0" result="hardAlpha"/>
<feOffset/>
<feGaussianBlur stdDeviation="5"/>
<feComposite in2="hardAlpha" operator="out"/>
<feColorMatrix type="matrix" values="0 0 0 0 0 0 0 0 0 0 0 0 0 0 0 0 0 0 0.05 0"/>
<feBlend mode="normal" in2="BackgroundImageFix" result="effect1_dropShadow_1030_1598"/>
<feBlend mode="normal" in="SourceGraphic" in2="effect1_dropShadow_1030_1598" result="shape"/>
</filter>
</defs>
</svg>
