<svg width="34" height="34" viewBox="0 0 34 34" fill="none" xmlns="http://www.w3.org/2000/svg">
<rect x="0.75" y="0.75" width="32.5" height="32.5" rx="16.25" stroke="white" stroke-opacity="0.2" stroke-width="1.5"/>
<path fill-rule="evenodd" clip-rule="evenodd" d="M16.834 14.7557L16.8586 15.1705L16.4492 15.1197C14.9588 14.925 13.6567 14.2647 12.5512 13.1558L12.0107 12.6056L11.8715 13.0119C11.5767 13.9177 11.7651 14.8742 12.3792 15.5176C12.7068 15.8731 12.6331 15.9239 12.0681 15.7123C11.8715 15.6445 11.6996 15.5937 11.6832 15.6191C11.6259 15.6784 11.8224 16.4487 11.978 16.7534C12.1909 17.1767 12.6249 17.5915 13.0999 17.837L13.5011 18.0317L13.0262 18.0401C12.5676 18.0401 12.5512 18.0486 12.6003 18.2263C12.7641 18.7766 13.4111 19.3607 14.1317 19.6146L14.6394 19.7924L14.1972 20.0632C13.5421 20.4526 12.7723 20.6727 12.0025 20.6897C11.634 20.6981 11.3311 20.732 11.3311 20.7574C11.3311 20.842 12.3301 21.3161 12.9115 21.5023C14.6558 22.0525 16.7276 21.8155 18.2835 20.8759C19.389 20.2072 20.4945 18.8782 21.0104 17.5915C21.2888 16.9058 21.5673 15.653 21.5673 15.052C21.5673 14.6626 21.5918 14.6118 22.0504 14.1462C22.3206 13.8754 22.5745 13.5791 22.6236 13.4944C22.7055 13.3336 22.6973 13.3336 22.2797 13.4775C21.5836 13.7315 21.4854 13.6976 21.8293 13.3167C22.0832 13.0458 22.3861 12.5548 22.3861 12.4109C22.3861 12.3855 22.2633 12.4278 22.1241 12.504C21.9767 12.5887 21.6491 12.7157 21.4035 12.7918L20.9613 12.9357L20.56 12.6564C20.3389 12.504 20.0277 12.3347 19.8639 12.2839C19.4463 12.1654 18.8076 12.1824 18.4309 12.3178C17.4073 12.6987 16.7603 13.6807 16.834 14.7557Z" fill="white"/>
</svg>
