<svg width="42" height="34" viewBox="0 0 42 34" fill="none" xmlns="http://www.w3.org/2000/svg">
<path fill-rule="evenodd" clip-rule="evenodd" d="M36.9598 10.8701C35.9637 11.1942 34.6537 11.8413 32.7092 12.8083L32.233 13.0451V20.9583L32.7092 21.1952C34.6537 22.1621 35.9637 22.8091 36.9598 23.1333C37.9352 23.4508 38.2306 23.329 38.3753 23.24C38.5201 23.151 38.7615 22.9428 38.9123 21.9331C39.0663 20.9022 39.0702 19.4474 39.0702 17.2852V16.7182C39.0702 14.556 39.0663 13.1013 38.9123 12.0703C38.7615 11.0606 38.5201 10.8523 38.3753 10.7633C38.2306 10.6743 37.9352 10.5526 36.9598 10.8701ZM36.0485 8.10031C37.321 7.68617 38.6709 7.51903 39.9158 8.28426C41.1608 9.04948 41.6142 10.325 41.8107 11.6422C42.0006 12.9131 42.0004 14.5871 42.0004 16.5984V17.405C42.0004 19.4163 42.0006 21.0902 41.8107 22.3611C41.6142 23.6783 41.1608 24.9538 39.9158 25.7191C38.6709 26.4844 37.321 26.3173 36.0485 25.9031C34.8208 25.5034 33.3152 24.7549 31.5065 23.8553L29.3027 22.7593V11.244L31.3986 10.2017C31.4348 10.1838 31.4707 10.1659 31.5065 10.1481C33.3152 9.24856 34.8208 8.49986 36.0485 8.10031Z" fill="#00B2FF"/>
<path fill-rule="evenodd" clip-rule="evenodd" d="M16.1184 8.74414C16.5532 8.74414 16.9656 8.93623 17.244 9.26844L22.1277 15.0971C22.6456 15.7153 22.5616 16.6341 21.94 17.1493C21.3184 17.6644 20.3946 17.5808 19.8765 16.9626L17.5835 14.2259V23.8013C17.5835 24.606 16.9276 25.2584 16.1184 25.2584C15.3093 25.2584 14.6533 24.606 14.6533 23.8013V14.2259L12.3602 16.9626C11.8422 17.5808 10.9184 17.6644 10.2967 17.1493C9.67512 16.6341 9.59114 15.7153 10.1091 15.0971L14.9929 9.26844C15.2712 8.93623 15.6836 8.74414 16.1184 8.74414Z" fill="#00B2FF"/>
<path fill-rule="evenodd" clip-rule="evenodd" d="M16.0207 3.56636e-07H16.2118C19.3419 -1.90719e-05 21.8214 -3.84901e-05 23.7833 0.230579C25.7972 0.467335 27.4551 0.964396 28.8401 2.09479C29.3099 2.47827 29.7407 2.90675 30.1263 3.37402C31.2628 4.75141 31.7627 6.40032 32.0007 8.40334C32.2326 10.3544 32.2326 12.8206 32.2326 15.9336V18.0664C32.2326 21.1795 32.2326 23.6455 32.0007 25.5968C31.7627 27.5996 31.2628 29.2485 30.1263 30.626C29.7407 31.0933 29.3099 31.5217 28.8401 31.9052C27.4551 33.0356 25.7972 33.5327 23.7833 33.7694C21.8214 34 19.3419 34 16.2119 34H16.0207C12.8907 34 10.411 34 8.44932 33.7694C6.43534 33.5327 4.77741 33.0356 3.39249 31.9052C2.92265 31.5217 2.49183 31.0933 2.10625 30.626C0.969673 29.2485 0.469892 27.5996 0.23184 25.5968C-3.87007e-05 23.6455 -1.91763e-05 21.1795 3.58588e-07 18.0664V16.0286C3.58588e-07 15.2238 0.655962 14.5714 1.46512 14.5714C2.27427 14.5714 2.93023 15.2238 2.93023 16.0286V17.9714C2.93023 21.2007 2.93264 23.4946 3.14181 25.2546C3.34718 26.9824 3.73425 28.0051 4.37136 28.7772C4.63518 29.0968 4.92994 29.39 5.25141 29.6525C6.02774 30.286 7.05594 30.6711 8.79329 30.8753C10.563 31.0834 12.8694 31.0857 16.1163 31.0857C19.3632 31.0857 21.6697 31.0834 23.4393 30.8753C25.1766 30.6711 26.2049 30.286 26.9812 29.6525C27.3025 29.39 27.5973 29.0968 27.8612 28.7772C28.4983 28.0051 28.8854 26.9824 29.0908 25.2546C29.3 23.4946 29.3023 21.2007 29.3023 17.9714V16.0286C29.3023 12.7993 29.3 10.5055 29.0908 8.74544C28.8854 7.01754 28.4983 5.99494 27.8612 5.22283C27.5973 4.90311 27.3025 4.60995 26.9812 4.34757C26.2049 3.71393 25.1766 3.32897 23.4393 3.12472C21.6697 2.91668 19.3632 2.91429 16.1163 2.91429C12.8694 2.91429 10.563 2.91668 8.79329 3.12472C7.05594 3.32897 6.02774 3.71393 5.25141 4.34757C4.92994 4.60995 4.63518 4.90311 4.37136 5.22283C3.7706 5.95086 3.39237 6.90149 3.17903 8.4544C3.0695 9.25175 2.33079 9.80982 1.52907 9.70088C0.727362 9.59194 0.166242 8.85725 0.275774 8.0599C0.529864 6.21023 1.03553 4.67162 2.10625 3.37402C2.49183 2.90675 2.92265 2.47827 3.39249 2.09479C4.77741 0.964396 6.43534 0.467335 8.44932 0.230579C10.4111 -3.84901e-05 12.8907 -1.90719e-05 16.0207 3.56636e-07Z" fill="#00B2FF"/>
</svg>
