<svg width="60" height="60" viewBox="0 0 60 60" fill="none" xmlns="http://www.w3.org/2000/svg">
<g filter="url(#filter0_d_1030_1601)">
<rect x="10" y="10" width="40" height="40" rx="20" fill="white"/>
<rect x="10.75" y="10.75" width="38.5" height="38.5" rx="19.25" stroke="#0F0A19" stroke-opacity="0.1" stroke-width="1.5"/>
<path opacity="0.8" fill-rule="evenodd" clip-rule="evenodd" d="M29.9989 20C24.4816 20 20 24.4816 20 29.9989C20 35.5183 24.4816 40 29.9989 40C35.5161 40 40 35.5184 40 29.9989C40 24.4815 35.5161 20 29.9989 20ZM30.4533 21.0637C30.7509 21.1541 31.0472 21.3353 31.345 21.6152C31.7941 22.0372 32.2275 22.6811 32.5948 23.4974C32.7196 23.7746 32.8365 24.0719 32.9451 24.3862H30.4533V21.0637ZM29.5443 21.0639V24.3862H27.0533C27.1619 24.0719 27.2789 23.7746 27.4037 23.4974C27.7712 22.6811 28.2047 22.0372 28.6537 21.6152C28.9513 21.3355 29.2472 21.1543 29.5443 21.0639ZM27.8123 21.173C27.3367 21.6843 26.9252 22.346 26.5748 23.1242C26.3984 23.5162 26.2376 23.9382 26.0939 24.3862H22.8445C24.0762 22.8175 25.8134 21.6653 27.8123 21.173ZM32.1865 21.1732C34.1853 21.6657 35.9226 22.8178 37.1545 24.3862H33.9045C33.7609 23.9382 33.6001 23.5162 33.4237 23.1243C33.0735 22.3461 32.6622 21.6845 32.1865 21.1732ZM22.2161 25.2952H25.8354C25.5154 26.5706 25.324 28.0115 25.2924 29.5444H20.9202C20.9963 27.9934 21.4598 26.5455 22.2161 25.2952ZM26.7764 25.2952H29.5443V29.5444H26.2016C26.2358 27.9921 26.4437 26.5423 26.7764 25.2952ZM30.4533 25.2952H33.2218C33.5543 26.5423 33.7619 27.9921 33.796 29.5444H30.4533V25.2952ZM34.1628 25.2952H37.7832C38.5399 26.5455 39.0037 27.9934 39.0798 29.5444H34.7053C34.6736 28.0115 34.4826 26.5706 34.1628 25.2952ZM20.9202 30.4533H25.2924C25.3236 31.9636 25.5095 33.3845 25.8208 34.6457H22.1812C21.4455 33.4085 20.995 31.981 20.9202 30.4533ZM26.2016 30.4533H29.5443V34.6457H26.7609C26.4372 33.4115 26.2352 31.9822 26.2016 30.4533ZM30.4533 30.4533H33.796C33.7625 31.9822 33.5608 33.4116 33.2373 34.6457H30.4533V30.4533ZM34.7053 30.4533H39.0798C39.0049 31.981 38.5541 33.4086 37.8181 34.6458C37.8172 34.6458 37.8164 34.6458 37.8155 34.6457H34.1774C34.4885 33.3845 34.6741 31.9636 34.7053 30.4533ZM22.799 35.5548H26.0755C26.2239 36.0246 26.3908 36.4665 26.5748 36.8754C26.9252 37.6539 27.3368 38.3157 27.8125 38.827C25.7887 38.3287 24.0332 37.1537 22.799 35.5548ZM27.0331 35.5548H29.5443V38.9361C29.2472 38.8457 28.9513 38.6645 28.6537 38.3848C28.2047 37.9628 27.7713 37.3188 27.4038 36.5024C27.2712 36.2079 27.1473 35.8909 27.0331 35.5548ZM30.4533 35.5548H32.9653C32.8511 35.8909 32.7273 36.2079 32.5948 36.5024C32.2275 37.3188 31.7941 37.9628 31.345 38.3848C31.0472 38.6647 30.7509 38.8459 30.4533 38.9363V35.5548ZM33.9227 35.5548H37.2C35.9655 37.1534 34.21 38.3282 32.1864 38.8268C32.6621 38.3155 33.0736 37.6537 33.4238 36.8753C33.6077 36.4664 33.7745 36.0245 33.9227 35.5548Z" fill="#0F0A19" stroke="#0F0A19" stroke-width="0.2"/>
</g>
<defs>
<filter id="filter0_d_1030_1601" x="0" y="0" width="60" height="60" filterUnits="userSpaceOnUse" color-interpolation-filters="sRGB">
<feFlood flood-opacity="0" result="BackgroundImageFix"/>
<feColorMatrix in="SourceAlpha" type="matrix" values="0 0 0 0 0 0 0 0 0 0 0 0 0 0 0 0 0 0 127 0" result="hardAlpha"/>
<feOffset/>
<feGaussianBlur stdDeviation="5"/>
<feComposite in2="hardAlpha" operator="out"/>
<feColorMatrix type="matrix" values="0 0 0 0 0 0 0 0 0 0 0 0 0 0 0 0 0 0 0.05 0"/>
<feBlend mode="normal" in2="BackgroundImageFix" result="effect1_dropShadow_1030_1601"/>
<feBlend mode="normal" in="SourceGraphic" in2="effect1_dropShadow_1030_1601" result="shape"/>
</filter>
</defs>
</svg>
