<svg width="155" height="64" viewBox="0 0 155 64" fill="none" xmlns="http://www.w3.org/2000/svg">
<path d="M83.784 26.72L81.016 38H77.16L75.608 31.088L74.024 38H70.168L67.432 26.72H70.824L72.136 34.432L73.912 26.72H77.352L79.08 34.368L80.392 26.72H83.784ZM90.8428 38.112C89.7867 38.112 88.8161 37.8667 87.9307 37.376C87.0454 36.8747 86.3414 36.1867 85.8187 35.312C85.3067 34.4267 85.0507 33.4293 85.0507 32.32C85.0507 31.2107 85.3067 30.2187 85.8187 29.344C86.3414 28.4587 87.0454 27.7707 87.9307 27.28C88.8161 26.7893 89.7867 26.544 90.8428 26.544C91.9094 26.544 92.8801 26.7893 93.7548 27.28C94.6401 27.7707 95.3388 28.4587 95.8507 29.344C96.3628 30.2187 96.6188 31.2107 96.6188 32.32C96.6188 33.4293 96.3628 34.4267 95.8507 35.312C95.3388 36.1867 94.6401 36.8747 93.7548 37.376C92.8694 37.8667 91.8988 38.112 90.8428 38.112ZM90.8428 35.2C91.6427 35.2 92.2721 34.9387 92.7308 34.416C93.2001 33.8933 93.4348 33.1947 93.4348 32.32C93.4348 31.424 93.2001 30.72 92.7308 30.208C92.2721 29.6853 91.6427 29.424 90.8428 29.424C90.0321 29.424 89.3974 29.6853 88.9387 30.208C88.4801 30.72 88.2507 31.424 88.2507 32.32C88.2507 33.2053 88.4801 33.9093 88.9387 34.432C89.3974 34.944 90.0321 35.2 90.8428 35.2ZM104.06 38L101.82 33.84H101.484V38H98.3485V26.72H103.292C104.199 26.72 104.967 26.88 105.596 27.2C106.226 27.5093 106.7 27.9413 107.021 28.496C107.34 29.04 107.5 29.6533 107.5 30.336C107.5 31.104 107.287 31.7813 106.86 32.368C106.444 32.944 105.831 33.3547 105.02 33.6L107.564 38H104.06ZM101.484 31.696H103.036C103.463 31.696 103.783 31.5947 103.996 31.392C104.21 31.1893 104.316 30.896 104.316 30.512C104.316 30.1493 104.204 29.8667 103.98 29.664C103.767 29.4507 103.452 29.344 103.036 29.344H101.484V31.696ZM115.919 38L112.383 33.056V38H109.247V26.72H112.383V31.584L115.887 26.72H119.503L115.359 32.192L119.711 38H115.919ZM126.584 38.112C125.528 38.112 124.557 37.8667 123.672 37.376C122.787 36.8747 122.083 36.1867 121.56 35.312C121.048 34.4267 120.792 33.4293 120.792 32.32C120.792 31.2107 121.048 30.2187 121.56 29.344C122.083 28.4587 122.787 27.7707 123.672 27.28C124.557 26.7893 125.528 26.544 126.584 26.544C127.651 26.544 128.621 26.7893 129.496 27.28C130.381 27.7707 131.08 28.4587 131.592 29.344C132.104 30.2187 132.36 31.2107 132.36 32.32C132.36 33.4293 132.104 34.4267 131.592 35.312C131.08 36.1867 130.381 36.8747 129.496 37.376C128.611 37.8667 127.64 38.112 126.584 38.112ZM126.584 35.2C127.384 35.2 128.013 34.9387 128.472 34.416C128.941 33.8933 129.176 33.1947 129.176 32.32C129.176 31.424 128.941 30.72 128.472 30.208C128.013 29.6853 127.384 29.424 126.584 29.424C125.773 29.424 125.139 29.6853 124.68 30.208C124.221 30.72 123.992 31.424 123.992 32.32C123.992 33.2053 124.221 33.9093 124.68 34.432C125.139 34.944 125.773 35.2 126.584 35.2ZM137.162 26.72V33.264C137.162 33.872 137.3 34.3413 137.578 34.672C137.866 35.0027 138.298 35.168 138.874 35.168C139.45 35.168 139.882 35.0027 140.17 34.672C140.468 34.3307 140.618 33.8613 140.618 33.264V26.72H143.754V33.264C143.754 34.2987 143.535 35.184 143.098 35.92C142.66 36.6453 142.063 37.1947 141.306 37.568C140.559 37.9307 139.727 38.112 138.81 38.112C137.892 38.112 137.071 37.9307 136.346 37.568C135.631 37.1947 135.066 36.6453 134.65 35.92C134.244 35.1947 134.042 34.3093 134.042 33.264V26.72H137.162ZM154.296 26.72V29.216H151.288V38H148.152V29.216H145.176V26.72H154.296Z" fill="#3D2278"/>
<g filter="url(#filter0_bd_1506_65)">
<rect x="12" y="12" width="40" height="40" rx="10" fill="url(#paint0_linear_1506_65)"/>
</g>
<path fill-rule="evenodd" clip-rule="evenodd" d="M27.0742 31.5173L27.88 26.6596L33.2239 26.0547C33.9753 26.3735 34.3511 26.533 34.3511 26.533C35.903 30.0388 36.6789 31.7917 36.6789 31.7917L40.9995 29.6091" fill="#3D2278"/>
<path d="M27.0742 31.5173L27.88 26.6596L33.2239 26.0547C33.9753 26.3735 34.3511 26.533 34.3511 26.533C35.903 30.0388 36.6789 31.7917 36.6789 31.7917L40.9995 29.6091" stroke="#3D2278" stroke-width="2.27753" stroke-linecap="round" stroke-linejoin="round"/>
<path fill-rule="evenodd" clip-rule="evenodd" d="M24 43.999L28.3702 39.4285L30.3776 33.2188L32.3544 33.614L37.2417 37.6208L31.5641 41.2594" fill="white"/>
<path d="M24 43.999L28.3702 39.4285L30.3776 33.2188L32.3544 33.614L37.2417 37.6208L31.5641 41.2594" stroke="#3D2278" stroke-width="2.58811" stroke-linecap="round" stroke-linejoin="round"/>
<path fill-rule="evenodd" clip-rule="evenodd" d="M33.4653 26.4648L31.2852 33.7392L33.4653 26.4648Z" fill="#3D2278"/>
<path d="M33.4653 26.4648L31.2852 33.7392" stroke="#3D2278" stroke-width="4.65859"/>
<path d="M36.6631 22.1797C36.6631 23.0747 35.895 23.8418 34.8951 23.8418C33.8952 23.8418 33.127 23.0747 33.127 22.1797C33.127 21.2846 33.8952 20.5176 34.8951 20.5176C35.895 20.5176 36.6631 21.2846 36.6631 22.1797Z" fill="#3D2278" stroke="#3D2278" stroke-width="1.03524"/>
<defs>
<filter id="filter0_bd_1506_65" x="-1" y="-1" width="66" height="66" filterUnits="userSpaceOnUse" color-interpolation-filters="sRGB">
<feFlood flood-opacity="0" result="BackgroundImageFix"/>
<feGaussianBlur in="BackgroundImageFix" stdDeviation="6.5"/>
<feComposite in2="SourceAlpha" operator="in" result="effect1_backgroundBlur_1506_65"/>
<feColorMatrix in="SourceAlpha" type="matrix" values="0 0 0 0 0 0 0 0 0 0 0 0 0 0 0 0 0 0 127 0" result="hardAlpha"/>
<feOffset/>
<feGaussianBlur stdDeviation="6"/>
<feComposite in2="hardAlpha" operator="out"/>
<feColorMatrix type="matrix" values="0 0 0 0 0.0588235 0 0 0 0 0.0392157 0 0 0 0 0.0980392 0 0 0 0.1 0"/>
<feBlend mode="normal" in2="effect1_backgroundBlur_1506_65" result="effect2_dropShadow_1506_65"/>
<feBlend mode="normal" in="SourceGraphic" in2="effect2_dropShadow_1506_65" result="shape"/>
</filter>
<linearGradient id="paint0_linear_1506_65" x1="18.4547" y1="17.086" x2="57.3959" y2="32.511" gradientUnits="userSpaceOnUse">
<stop stop-color="white"/>
<stop offset="0.5" stop-color="#F9F9F9"/>
<stop offset="1" stop-color="#FAFAFA"/>
</linearGradient>
</defs>
</svg>
