<svg width="60" height="60" viewBox="0 0 60 60" fill="none" xmlns="http://www.w3.org/2000/svg">
<g filter="url(#filter0_d_1030_1604)">
<rect x="10" y="10" width="40" height="40" rx="20" fill="white"/>
<rect x="10.75" y="10.75" width="38.5" height="38.5" rx="19.25" stroke="#0F0A19" stroke-opacity="0.1" stroke-width="1.5"/>
<g opacity="0.8">
<path fill-rule="evenodd" clip-rule="evenodd" d="M39.1481 24.3482C38.6054 23.3654 38.0175 23.1848 36.8189 23.1162C35.6216 23.0336 32.6098 23 30.002 23C27.3888 23 24.3757 23.0336 23.1798 23.1162C21.9839 23.1862 21.3946 23.3654 20.8466 24.3482C20.288 25.331 20 27.0208 20 29.9972V30.0084C20 32.9722 20.288 34.6746 20.8466 35.6448C21.3932 36.6262 21.9825 36.8054 23.1798 36.888C24.3757 36.958 27.3875 37 30.002 37C32.6098 37 35.6216 36.958 36.8202 36.888C38.0188 36.8054 38.6068 36.6262 39.1494 35.6448C39.7147 34.6732 40 32.9708 40 30.0084V29.9972C39.9987 27.0208 39.7147 25.331 39.1481 24.3482Z" stroke="#0F0A19" stroke-width="1.2" stroke-miterlimit="10" stroke-linecap="round" stroke-linejoin="round"/>
<path fill-rule="evenodd" clip-rule="evenodd" d="M27.998 33.5V26.5L33.331 30L27.998 33.5Z" stroke="#0F0A19" stroke-width="1.2" stroke-miterlimit="10" stroke-linecap="round" stroke-linejoin="round"/>
</g>
</g>
<defs>
<filter id="filter0_d_1030_1604" x="0" y="0" width="60" height="60" filterUnits="userSpaceOnUse" color-interpolation-filters="sRGB">
<feFlood flood-opacity="0" result="BackgroundImageFix"/>
<feColorMatrix in="SourceAlpha" type="matrix" values="0 0 0 0 0 0 0 0 0 0 0 0 0 0 0 0 0 0 127 0" result="hardAlpha"/>
<feOffset/>
<feGaussianBlur stdDeviation="5"/>
<feComposite in2="hardAlpha" operator="out"/>
<feColorMatrix type="matrix" values="0 0 0 0 0 0 0 0 0 0 0 0 0 0 0 0 0 0 0.05 0"/>
<feBlend mode="normal" in2="BackgroundImageFix" result="effect1_dropShadow_1030_1604"/>
<feBlend mode="normal" in="SourceGraphic" in2="effect1_dropShadow_1030_1604" result="shape"/>
</filter>
</defs>
</svg>
